<svg xmlns="http://www.w3.org/2000/svg" viewBox="0 0 786.56 144"><defs><style>.cls-1{fill:#690;}</style></defs><g id="MONGABAY"><path d="M164.23,90.56c1.08-.74,3.05-1.26,5.89-1.58,2.2-.1,3.52-.29,3.94-.57a1.94,1.94,0,0,0,.63-.79c.53-1.29.91-4.8,1.16-10.52q.48-11.19,1.55-29.81.85-14.19.86-17.71V28.21c-2.53-.52-6.55-1.08-12-1.68a2.47,2.47,0,0,1-.53-1.21,2.55,2.55,0,0,1,.37-.95,4.44,4.44,0,0,1,1.36-.31,16.75,16.75,0,0,1,1.84.21,51.86,51.86,0,0,0,7.08.37q1.47,0,5-.24c1.68-.12,2.62-.18,2.83-.18a7.12,7.12,0,0,1,1.94.31,5.1,5.1,0,0,1,.81,1l2.2,4.95,14.89,32.9,6.2,13.82A233,233,0,0,0,221.58,51.5a7.79,7.79,0,0,1,.63-1.52,19.89,19.89,0,0,0,.89-2q.42-1.11,3.4-8.41c.81-2,1.45-3.65,1.94-5q3-8.42,3.51-9.62a4.64,4.64,0,0,1,1.74-.42,18,18,0,0,1,2.16.16c2,.1,5.17.16,9.6.16q4.11,0,6.75-.11a5.27,5.27,0,0,1,.1.84,4.56,4.56,0,0,1-.15,1,9.45,9.45,0,0,1-4.05,1,26.67,26.67,0,0,0-5.95.73,2.71,2.71,0,0,0-1.6,1.21,21,21,0,0,0-.6,4.84l.05,2.42L240,39.25q0,7.89.42,26.5l-.06,10.3.06,6.62a15.55,15.55,0,0,0,.36,4.6,3.79,3.79,0,0,0,2.11,1.34,63.76,63.76,0,0,0,9.25,2,.78.78,0,0,1,.37.68c0,.32,0,.67-.05,1.05H250c-2.08,0-4.32-.06-6.75-.18l-3.89-.19q-10.8,0-14.33.25c-1.44.12-2.35.17-2.74.17a1.76,1.76,0,0,1-.79-.21v-.68a3.36,3.36,0,0,1,.16-1,16.12,16.12,0,0,1,4.73-1,17.41,17.41,0,0,0,4.84-1.89,44.51,44.51,0,0,0,.47-8.16l-.16-10.63q0-1.72.19-6.47t.18-15.41q0-8.47-.42-12.84c-.59,1.22-1.76,3.89-3.51,8l-.78,2-.11.31-7.75,18.4-2.77,7.1-3.62,8.62q-2.35,5.94-4,10.51c-.49,1.4-.89,2.51-1.2,3.31l-1.23-.05q-6-17.35-14.19-35.59T180.74,32.58q-.44,2.25-1,13.14-.7,13.24-.7,29.17a94.47,94.47,0,0,0,.74,11.21,3.46,3.46,0,0,0,1.52,2.65q1.32.87,6.78,1a24.31,24.31,0,0,1,4,.31,3.27,3.27,0,0,1,.37,1.19,3,3,0,0,1-.26.91l-16.33-.57c-1.19,0-3,.07-5.56.23-1.4.09-3.42.16-6,.19Z"/><path d="M258.19,58.23a32.29,32.29,0,0,1,1.29-9.54,39.09,39.09,0,0,1,4.34-9.07,30.32,30.32,0,0,1,7.36-8.17,41,41,0,0,1,11.94-5.81,44.6,44.6,0,0,1,13.56-1.74,40.15,40.15,0,0,1,10.81,1.47,37.8,37.8,0,0,1,9.59,4.1,33.92,33.92,0,0,1,8.63,8.1,27.87,27.87,0,0,1,4.52,8.15,35.7,35.7,0,0,1,2,11.82,41.86,41.86,0,0,1-1.34,11.52,30.67,30.67,0,0,1-4.5,9,40.52,40.52,0,0,1-8.46,8A32.16,32.16,0,0,1,308,91a42.42,42.42,0,0,1-12.83,1.87,43.5,43.5,0,0,1-12.46-1.63,35.81,35.81,0,0,1-9.13-4,34.87,34.87,0,0,1-7.52-6.91,32.94,32.94,0,0,1-5.86-10.09A35.21,35.21,0,0,1,258.19,58.23Zm36.49,32.7a36.64,36.64,0,0,0,9.18-1.24,22.9,22.9,0,0,0,8.44-4.1,22.23,22.23,0,0,0,5.76-6.52,33.84,33.84,0,0,0,3.34-9.38,53.22,53.22,0,0,0,1.26-11.46,48.88,48.88,0,0,0-2.1-14.14,25.56,25.56,0,0,0-5.32-9.49,25.16,25.16,0,0,0-8.88-6.47,27.36,27.36,0,0,0-11.1-2.28,28.56,28.56,0,0,0-9.36,1.57,24.07,24.07,0,0,0-7.52,4,24.36,24.36,0,0,0-5.46,6.93,38.4,38.4,0,0,0-3.84,9.91,41,41,0,0,0-1.32,9.57,43,43,0,0,0,1.32,9.88,36.29,36.29,0,0,0,3.6,9.57,30.06,30.06,0,0,0,5.62,7.18,23.57,23.57,0,0,0,16.38,6.44Z"/><path d="M338.8,27.53,338.75,25a116.82,116.82,0,0,0,11.94-.43c1-.1,1.66-.15,2.05-.15s.79,0,1.42.05a29.24,29.24,0,0,1,4.1,4.21l.94,1L370.3,42l1.58,1.9q3.36,3.94,6.12,6.73t10.76,11.61l12.56,13.93q1.85,2.05,4.73,5.1l.06-.84c-.21-4.87-.32-7.44-.32-7.73l.21-3.15-.1-4.94V62.33q0-2.16-.37-13.3-.06-1.53-.42-5.76t-.37-7.44q0-5.77-.68-6.72c-.32-.46-1.81-.93-4.47-1.42-.63,0-1.62-.14-2.95-.32a15.31,15.31,0,0,1-2.78-.26,1.9,1.9,0,0,1-.85-.9,4.7,4.7,0,0,1,.48-1.57,9.72,9.72,0,0,1,2.78-.42,23.18,23.18,0,0,1,3.66.36,23.28,23.28,0,0,0,3.92.37q2.41,0,7.52-.31c1.92-.14,3.26-.21,4-.21h.9l-.11,1.63a6.9,6.9,0,0,1-2.31.44,12.86,12.86,0,0,0-2.74.45,6.11,6.11,0,0,0-2.26,1,4.12,4.12,0,0,0-1.26,2.79l.58,16.61.42,7.62-.05,2.21.31,10.56q.32,10.83.32,18.82c0,1.16-.07,3.66-.21,7.52l-2.45.21q-1.85-2.1-12.68-13.25-2.52-2.57-3.42-3.62l-4.52-5.21c-1.76-1.93-2.9-3.15-3.42-3.68l-1.16-1.15q-5.73-6.52-14.89-16.3c-1.65-1.75-4.06-4.49-7.26-8.2q-3-3.52-3.78-4.31a19.3,19.3,0,0,0-2.16-1.79l-.16,1.79q0,10.24.53,28.28l.37,17.4c0,1.47.12,2.89.26,4.26l1.84.42a99,99,0,0,1,9.83,1.42,5,5,0,0,0,.63.47l-.05,2a5,5,0,0,1-1.37.26,11.71,11.71,0,0,1-1.42-.1q-5.21-.42-12.67-.42c-3.5,0-6.59.08-9.25.26l-.74.05c-.32,0-.77,0-1.37-.1l-.05-1.58,1.37-.63,2.47-.37a25.56,25.56,0,0,0,4.84-1A3.86,3.86,0,0,0,349.9,88a73.18,73.18,0,0,0,.58-10.61c0-2.18-.06-6.15-.16-11.94V58.33l-.11-14.93q-.1-10-.68-11.77A3.47,3.47,0,0,0,348.21,30,11.05,11.05,0,0,0,343,28.16,35.17,35.17,0,0,1,338.8,27.53Z"/><path d="M490.56,28l.57,8c.22,2.42.32,4.07.32,4.94L490,41.2q-3.53-8-8.76-12a20.48,20.48,0,0,0-12.8-4q-9.26,0-14.41,2.26a29.36,29.36,0,0,0-12.78,11.14q-5.31,7.93-5.31,19.14a32.57,32.57,0,0,0,1.95,11.61,35.15,35.15,0,0,0,5.49,9.6,37.37,37.37,0,0,0,8.39,7.7,23.36,23.36,0,0,0,7.52,3.26,35.27,35.27,0,0,0,7.36.57,30.82,30.82,0,0,0,7-.89,15.16,15.16,0,0,0,5.79-2.39,7.71,7.71,0,0,0,2.65-3.39c.48-1.26.71-3.71.71-7.36q0-9.09-1.21-10.59t-7.62-2l-2.1-.16-1.42,0c-.21,0-.49-.09-.84-.16l-.79-1.31a1.18,1.18,0,0,1,.36-.68A101,101,0,0,1,481,61.22c1.37,0,3.59,0,6.68.11l5.41.21,4.89,0c1,0,2.09,0,3.42.1a.74.74,0,0,1,.47.19.69.69,0,0,1,.11.44,5.69,5.69,0,0,1-.26,1.48,18.11,18.11,0,0,1-3.42.47l-3.42,0a3.5,3.5,0,0,0-2.79,1.21c-.35.38-.52,1.7-.52,3.94l.05,6.88q0,7.09-.58,9a4.38,4.38,0,0,1-1.31,2.07,14.92,14.92,0,0,1-4.21,2.18,40.55,40.55,0,0,1-8.31,2.47,77.61,77.61,0,0,1-13.41,1.21q-10.41,0-17.06-2.65a34.22,34.22,0,0,1-11.46-7.39,30.06,30.06,0,0,1-6.86-9.56,35.79,35.79,0,0,1-3.11-14.46,36.81,36.81,0,0,1,4.87-18q4.86-8.79,15.69-14.32,7.63-3.89,20.72-3.89a57.47,57.47,0,0,1,14.8,1.58A37.88,37.88,0,0,1,490.56,28Z"/><path d="M502.86,90.14a2.72,2.72,0,0,1,1.31-.42h1.21q.38,0,1.26-.06a20.89,20.89,0,0,0,4.79-.73,8.1,8.1,0,0,0,3.15-3.47,127.63,127.63,0,0,0,6.16-15.19c1.08-3.12,1.77-5,2-5.68.87-2.1,1.72-4.31,2.52-6.62l5-13.83q1.15-3.26,5.57-14.93,1.11-2.94,2.68-7.88l1.55-.11,1.84.05a73,73,0,0,1,4,9.62c.63,1.83,1.66,4.54,3.1,8.15l8,21.61,4.26,11.72q3.36,10,4.41,12.27a9,9,0,0,0,2,3,7.75,7.75,0,0,0,2,.63c1.14.28,1.94.49,2.39.63a21.65,21.65,0,0,1,3.37,1.15,2,2,0,0,1,0,1.69l-2.36,0q-2.68,0-9.47-.16l-5.26-.12-6.36.08q-.63,0-1.29-.06c-.44,0-.81-.06-1.13-.06h-1.16a2.67,2.67,0,0,1-1.05-.31,3.81,3.81,0,0,1,.27-1.42,3.47,3.47,0,0,1,1.15-.37l5.52-.37a9.72,9.72,0,0,0,3.26-.58,5,5,0,0,0,.32-1.42,23.16,23.16,0,0,0-1.37-4.9q-.95-2.62-1.65-5t-5.6-15.59a23.4,23.4,0,0,0-3.78-.37l-11.26.11-3.31-.06a32,32,0,0,0-3.94.27,23.93,23.93,0,0,0-.9,2.26L521.37,78.2q-2.94,8.26-2.94,9.1a4.7,4.7,0,0,0,.47,1.58,22.27,22.27,0,0,0,2.94.57l7.15.63c.39.32.58.6.58.85a2.86,2.86,0,0,1-.16.78c-1.57,0-2.78.06-3.62.06q-4.21,0-9.78-.27c-1.72-.07-3-.1-3.68-.1s-2,0-3.84.1c-1.2.07-2.05.11-2.58.11-.84,0-1.93,0-3.26-.16v-.31A3.36,3.36,0,0,1,502.86,90.14ZM528,58.6q5.63.32,12.83.31,4.11,0,7.21-.26a36.15,36.15,0,0,0-1.21-3.84q-3.42-9.14-3.78-10.09l-4.78-12.13-.53-1q-.32.63-2.31,5.41-3.37,8.21-4.85,12.77c-.46,1.37-.93,2.72-1.42,4.07a27.61,27.61,0,0,0-.92,2.84,10.4,10.4,0,0,1-.55,1.66Z"/><path d="M577.79,26.74V25.11a10.8,10.8,0,0,1,1.42-.26l4.94-.28q6.17-.54,13.78-.88,3-.11,9.62-.1,8.94,0,13.1,1.31a17.71,17.71,0,0,1,9,5.86,14.06,14.06,0,0,1,3,8.7q0,7.78-11.1,13.09l-.26.4a26.64,26.64,0,0,1,9.3,4.26,18.57,18.57,0,0,1,5.58,6.68,17.35,17.35,0,0,1,1.42,7.57q0,7.85-7.13,14t-19.64,6.13H603l-7.94.26q-10.51.11-12.31.1c-1.22,0-2.43,0-3.62-.16v-.59a1.25,1.25,0,0,1,.26-.91,2.48,2.48,0,0,1,1.21-.54q6.57-1.36,7.44-1.87a2.53,2.53,0,0,0,1.18-1.6q.63-2.1.63-10.81c0-.52,0-1.19-.05-2-.07-2.35-.1-3.69-.1-4V64q0-13.86-.32-24.19l-.05-10.55-.06-1.31c-3-.42-5.61-.69-7.88-.79A18.76,18.76,0,0,1,577.79,26.74Zm20.82,26.55a28.31,28.31,0,0,0,5.54.52q11.37,0,15.44-5t4-9.94a14.85,14.85,0,0,0-.71-4.49,10.07,10.07,0,0,0-2.53-4.13,11.15,11.15,0,0,0-4.5-2.73A29.45,29.45,0,0,0,606.52,26a33.37,33.37,0,0,0-8.33,1c0,.74-.05,1.28-.05,1.63s0,1.35.11,3c0,1.05,0,2.1,0,3.15l-.16,6.36.05,3.79.37,7.41ZM611,89a22.3,22.3,0,0,0,8.75-2.2,17.21,17.21,0,0,0,3.87-3,15.17,15.17,0,0,0,3.48-5.23,15.67,15.67,0,0,0,1.23-5.89,20.59,20.59,0,0,0-.87-5.3,13.91,13.91,0,0,0-3-5.55,14.94,14.94,0,0,0-6.19-3.94,25.26,25.26,0,0,0-9.06-1.55q-9.59,0-10.74.36c0,.81,0,1.41,0,1.79l0,1.95,0,3.94v4.47c.1,8.23.29,13.11.58,14.61a6,6,0,0,0,2.87,3.89Q604.36,89,611,89Z"/><path d="M638.68,90.14a2.72,2.72,0,0,1,1.32-.42h1.2c.25,0,.67,0,1.27-.06a20.87,20.87,0,0,0,4.78-.73,8.1,8.1,0,0,0,3.15-3.47,126,126,0,0,0,6.16-15.19c1.08-3.12,1.77-5,2.05-5.68.87-2.1,1.72-4.31,2.52-6.62l5-13.83q1.15-3.26,5.57-14.93,1.11-2.94,2.68-7.88l1.55-.11,1.84.05a71.67,71.67,0,0,1,4,9.62c.63,1.83,1.67,4.54,3.1,8.15l8,21.61,4.26,11.72q3.36,10,4.42,12.27a8.81,8.81,0,0,0,1.94,3,7.92,7.92,0,0,0,2,.63q1.71.42,2.4.63a21.82,21.82,0,0,1,3.36,1.15,2,2,0,0,1,.05,1.69l-2.36,0q-2.69,0-9.47-.16l-5.26-.12-6.36.08q-.63,0-1.29-.06c-.44,0-.81-.06-1.13-.06h-1.15a2.67,2.67,0,0,1-1.06-.31,3.81,3.81,0,0,1,.27-1.42,3.47,3.47,0,0,1,1.15-.37l5.52-.37a9.72,9.72,0,0,0,3.26-.58,5,5,0,0,0,.32-1.42,23.16,23.16,0,0,0-1.37-4.9q-.94-2.62-1.65-5T685,61.54a23.4,23.4,0,0,0-3.78-.37L670,61.28l-3.32-.06a32,32,0,0,0-3.94.27,23.93,23.93,0,0,0-.9,2.26L657.19,78.2q-2.94,8.26-2.94,9.1a4.7,4.7,0,0,0,.47,1.58,22.6,22.6,0,0,0,2.94.57l7.16.63c.38.32.57.6.57.85a3.18,3.18,0,0,1-.15.78q-2.37.06-3.63.06-4.22,0-9.78-.27c-1.72-.07-3-.1-3.68-.1s-2,0-3.84.1c-1.19.07-2,.11-2.58.11-.84,0-1.93,0-3.26-.16v-.31A3.36,3.36,0,0,1,638.68,90.14ZM663.77,58.6q5.63.32,12.83.31,4.11,0,7.21-.26a36.15,36.15,0,0,0-1.21-3.84q-3.42-9.14-3.78-10.09L674,32.59l-.53-1q-.32.63-2.31,5.41-3.37,8.21-4.85,12.77c-.45,1.37-.93,2.72-1.42,4.07a27.61,27.61,0,0,0-.92,2.84,9.49,9.49,0,0,1-.55,1.66Z"/><path d="M704.36,24.11h2.52q1.36,0,6,.14,7.14.29,11.88.28l6.15-.1a14.81,14.81,0,0,1,2.53.21,1.36,1.36,0,0,1,.36.89v.58l-1.32.63h-.58l-3,.05-1.53-.05a4.89,4.89,0,0,0-2.91.79,1.58,1.58,0,0,0-.84,1.21,3.29,3.29,0,0,0,.73,1.73l.84,1.26A48.76,48.76,0,0,0,728,35.89q2.47,3.48,5.26,8.21c.74,1.26,1.51,2.47,2.32,3.63l8,12.1c.52-.67,1.24-1.65,2.16-2.95L753.35,46l8.74-13.1a10.5,10.5,0,0,0,1.37-2.63,3.68,3.68,0,0,0,.11-.89,2.1,2.1,0,0,0-1-1.79c-1.09-.73-3.44-1.28-7.05-1.63l-1-.16a2.29,2.29,0,0,1-.37-1.05,4.18,4.18,0,0,1,.06-.68l2.73,0,9.89.26,7.94-.16,2.2.05L776.82,26a5.07,5.07,0,0,1-1.16.16l-1.26.16c-.21,0-.55.07-1,.1a7.32,7.32,0,0,0-1.74.9,172.89,172.89,0,0,0-13.14,15.4q-5.41,7.26-9.15,13.2c-.81,1.29-1.46,2.26-2,2.89a10.57,10.57,0,0,0-1.63,2.63,25,25,0,0,0-.57,6.21q0,16.38.57,19.33c.21,1,.49,1.58.84,1.79.92.45,4.54,1,10.89,1.63V91a3.84,3.84,0,0,1-.37,1.48l-13.48-.58-9,.48h-7.37c-.7,0-1.48,0-2.32-.06a2.77,2.77,0,0,1-.21-.84,2.36,2.36,0,0,1,.16-.73,1.52,1.52,0,0,1,.74-.37l6.81-1.05a16.62,16.62,0,0,0,4-1.58,3.19,3.19,0,0,0,.79-1.94q.06-.94,0-14.62a31.37,31.37,0,0,0-.34-6.23,19.44,19.44,0,0,0-2.23-4l-6.89-10.46L716.08,33.47a22.8,22.8,0,0,0-5.31-5.95c-.66-.45-2.33-.8-5-1a11.42,11.42,0,0,1-1.26-.11Z"/></g><g id="PERIODISMO_AMBIENTAL_INDEPENDIENTE_EN_LATINOAMÉRICA" data-name="PERIODISMO AMBIENTAL INDEPENDIENTE EN LATINOAMÉRICA"><path d="M166.79,103.79H171a7.47,7.47,0,0,1,1.58.19,4.4,4.4,0,0,1,1.51.63,3.57,3.57,0,0,1,1.13,1.24,4,4,0,0,1,.44,2,4.1,4.1,0,0,1-.36,1.78,3.6,3.6,0,0,1-1,1.24,4.18,4.18,0,0,1-1.39.72,6,6,0,0,1-1.65.23h-3.12V119h-1.35Zm1.35,6.71h3.06a4.32,4.32,0,0,0,1.13-.14,2.83,2.83,0,0,0,1-.45,2.26,2.26,0,0,0,.69-.83,2.67,2.67,0,0,0,.27-1.26,2.54,2.54,0,0,0-.28-1.25,2.47,2.47,0,0,0-.71-.85,3,3,0,0,0-1-.48,4.2,4.2,0,0,0-1.15-.16h-3Z"/><path d="M178.52,103.79h8.84v1.29h-7.49v5.42h7v1.29h-7v5.94h7.82V119h-9.17Z"/><path d="M190.63,103.79h3.8l.78,0a6,6,0,0,1,1.06.13,6.13,6.13,0,0,1,1.17.34,3.46,3.46,0,0,1,1.06.69,3.52,3.52,0,0,1,.77,1.14,4.69,4.69,0,0,1-.05,3.48,3.25,3.25,0,0,1-.9,1.15,3.86,3.86,0,0,1-1.19.66,8.05,8.05,0,0,1-1.25.3l4.21,7.31h-1.53l-4.07-7.23H192V119h-1.35ZM192,110.5h2.86a4.47,4.47,0,0,0,1.73-.28,2.85,2.85,0,0,0,1-.68,2.34,2.34,0,0,0,.5-.89,3.1,3.1,0,0,0,.13-.86,3.21,3.21,0,0,0-.13-.86,2.3,2.3,0,0,0-.5-.88,3,3,0,0,0-1-.69,4.67,4.67,0,0,0-1.73-.28H192Z"/><path d="M202.75,103.79h1.35V119h-1.35Z"/><path d="M207.12,111.41a9,9,0,0,1,.55-3.21,7.81,7.81,0,0,1,1.53-2.52,7,7,0,0,1,2.36-1.67,8,8,0,0,1,6.07,0,6.89,6.89,0,0,1,2.36,1.67,7.47,7.47,0,0,1,1.53,2.52,9.48,9.48,0,0,1,0,6.42,7.47,7.47,0,0,1-1.53,2.54,6.71,6.71,0,0,1-2.36,1.65,8.1,8.1,0,0,1-6.07,0,6.8,6.8,0,0,1-2.36-1.65,7.8,7.8,0,0,1-1.53-2.54A9,9,0,0,1,207.12,111.41Zm1.35,0a7.86,7.86,0,0,0,.43,2.64,6.21,6.21,0,0,0,1.22,2.13,5.83,5.83,0,0,0,1.93,1.42,6.18,6.18,0,0,0,2.55.51,6.1,6.1,0,0,0,2.54-.51,5.73,5.73,0,0,0,1.93-1.42,6.4,6.4,0,0,0,1.23-2.13,8.35,8.35,0,0,0,0-5.29,6.4,6.4,0,0,0-1.23-2.13,5.73,5.73,0,0,0-1.93-1.42,6.1,6.1,0,0,0-2.54-.51,6.18,6.18,0,0,0-2.55.51,5.83,5.83,0,0,0-1.93,1.42,6.21,6.21,0,0,0-1.22,2.13A7.88,7.88,0,0,0,208.47,111.41Z"/><path d="M224.91,103.79h4.48a9.34,9.34,0,0,1,3.19.49,7,7,0,0,1,2.17,1.23,6.1,6.1,0,0,1,1.37,1.67,8.79,8.79,0,0,1,.74,1.75,9.11,9.11,0,0,1,.29,1.52q.06.67.06,1c0,.18,0,.5-.06,1a9.11,9.11,0,0,1-.29,1.52,8.79,8.79,0,0,1-.74,1.75,6.1,6.1,0,0,1-1.37,1.67,7,7,0,0,1-2.17,1.23,9.1,9.1,0,0,1-3.19.49h-4.48Zm1.35,13.94H229a9.28,9.28,0,0,0,2.68-.38,5.9,5.9,0,0,0,2.16-1.15,5.27,5.27,0,0,0,1.45-2,7.66,7.66,0,0,0,0-5.65,5.27,5.27,0,0,0-1.45-2,5.9,5.9,0,0,0-2.16-1.15,9.28,9.28,0,0,0-2.68-.38h-2.78Z"/><path d="M240.24,103.79h1.35V119h-1.35Z"/><path d="M245.94,116.2a3.49,3.49,0,0,0,1.38,1.44,3.83,3.83,0,0,0,1.93.47,3.7,3.7,0,0,0,1.26-.21,3.33,3.33,0,0,0,1-.6,2.83,2.83,0,0,0,.69-.94,2.89,2.89,0,0,0,.26-1.24,2.49,2.49,0,0,0-.32-1.31,2.65,2.65,0,0,0-.85-.85,6.25,6.25,0,0,0-1.19-.57l-1.37-.47c-.47-.16-.93-.34-1.37-.54a4.76,4.76,0,0,1-1.2-.78,3.49,3.49,0,0,1-.84-1.22,4.33,4.33,0,0,1-.32-1.8,4,4,0,0,1,.38-1.8,3.77,3.77,0,0,1,1-1.31,4.48,4.48,0,0,1,1.48-.79,5.69,5.69,0,0,1,1.76-.27,5.29,5.29,0,0,1,2.19.44,4.14,4.14,0,0,1,1.75,1.47l-1.16.88a3.57,3.57,0,0,0-1.2-1.13,3.34,3.34,0,0,0-1.62-.37,4.24,4.24,0,0,0-1.25.18,2.89,2.89,0,0,0-1,.54,2.62,2.62,0,0,0-.71.89,2.94,2.94,0,0,0-.26,1.27,2.52,2.52,0,0,0,.55,1.75,4,4,0,0,0,1.38,1,13.53,13.53,0,0,0,1.8.62,8.59,8.59,0,0,1,1.79.72,3.79,3.79,0,0,1,1.38,1.26,3.88,3.88,0,0,1,.56,2.22,4.39,4.39,0,0,1-.37,1.83,4.22,4.22,0,0,1-1,1.35,4.28,4.28,0,0,1-1.44.82,5.14,5.14,0,0,1-1.7.28,6.58,6.58,0,0,1-2.64-.52,4.9,4.9,0,0,1-2.06-1.78Z"/><path d="M256.77,103.79h2l5.27,12.78,5.27-12.78h1.92V119H269.9V105.6h0L264.35,119h-.6l-5.59-13.42h-.05V119h-1.34Z"/><path d="M274.13,111.41a9.2,9.2,0,0,1,.55-3.21,7.66,7.66,0,0,1,1.54-2.52,6.89,6.89,0,0,1,2.36-1.67,8,8,0,0,1,6.06,0,6.89,6.89,0,0,1,2.36,1.67,7.66,7.66,0,0,1,1.54,2.52,9.64,9.64,0,0,1,0,6.42,7.65,7.65,0,0,1-1.54,2.54,6.71,6.71,0,0,1-2.36,1.65,8.08,8.08,0,0,1-6.06,0,6.71,6.71,0,0,1-2.36-1.65,7.65,7.65,0,0,1-1.54-2.54A9.24,9.24,0,0,1,274.13,111.41Zm1.35,0a7.86,7.86,0,0,0,.43,2.64,6.23,6.23,0,0,0,1.23,2.13,5.73,5.73,0,0,0,1.93,1.42,6.58,6.58,0,0,0,5.08,0,5.73,5.73,0,0,0,1.93-1.42,6.23,6.23,0,0,0,1.23-2.13,8.35,8.35,0,0,0,0-5.29,6.23,6.23,0,0,0-1.23-2.13,5.73,5.73,0,0,0-1.93-1.42,6.58,6.58,0,0,0-5.08,0,5.73,5.73,0,0,0-1.93,1.42,6.23,6.23,0,0,0-1.23,2.13A7.88,7.88,0,0,0,275.48,111.41Z"/><path d="M301.86,103.79h1.39L309.33,119h-1.51l-1.57-4h-7.66L297,119h-1.41Zm.63,1.55-3.37,8.34h6.64Z"/><path d="M311.28,103.79h2l5.27,12.78,5.27-12.78h1.92V119h-1.35V105.6h0L318.86,119h-.6l-5.6-13.42h0V119h-1.34Z"/><path d="M329.58,103.79h4.17a10.31,10.31,0,0,1,1.65.14,4.06,4.06,0,0,1,1.51.58,3.41,3.41,0,0,1,1.08,1.23,4.41,4.41,0,0,1,.42,2.08,3.24,3.24,0,0,1-.66,2,3.19,3.19,0,0,1-1.94,1.14v0a3.73,3.73,0,0,1,1.31.35,3.42,3.42,0,0,1,1,.78,3.35,3.35,0,0,1,.67,1.15,4.52,4.52,0,0,1,.23,1.46,4.24,4.24,0,0,1-.48,2.14,3.86,3.86,0,0,1-1.2,1.3,4.54,4.54,0,0,1-1.58.64,7.58,7.58,0,0,1-1.58.18h-4.62Zm1.35,6.58h2.8a4.46,4.46,0,0,0,1.69-.27,2.81,2.81,0,0,0,1-.65,2.1,2.1,0,0,0,.49-.83,3.18,3.18,0,0,0-.14-2.13,2.18,2.18,0,0,0-.68-.84,2.93,2.93,0,0,0-1-.44,5.9,5.9,0,0,0-1.21-.13h-3Zm0,7.36H334a5.15,5.15,0,0,0,1.92-.3,3.06,3.06,0,0,0,1.11-.76,2.42,2.42,0,0,0,.52-1,3.57,3.57,0,0,0,.13-.92,3.19,3.19,0,0,0-.3-1.44,2.87,2.87,0,0,0-.8-1,3.19,3.19,0,0,0-1.11-.54,4.57,4.57,0,0,0-1.26-.18h-3.29Z"/><path d="M342.45,103.79h1.35V119h-1.35Z"/><path d="M347.76,103.79h8.85v1.29h-7.5v5.42h7v1.29h-7v5.94h7.83V119h-9.18Z"/><path d="M359.88,103.79h1.74l8.8,13.33h0V103.79h1.35V119h-1.74l-8.8-13.33h0V119h-1.35Z"/><path d="M379,105.08H374v-1.29h11.23v1.29h-4.94V119H379Z"/><path d="M390.55,103.79h1.39L398,119h-1.51l-1.57-4h-7.66l-1.64,4h-1.41Zm.63,1.55-3.37,8.34h6.64Z"/><path d="M400.11,103.79h1.35v13.94h6.74V119h-8.09Z"/><path d="M415.63,103.79H417V119h-1.35Z"/><path d="M421,103.79h1.73l8.81,13.33h0V103.79h1.35V119h-1.74l-8.8-13.33h0V119H421Z"/><path d="M436.66,103.79h4.47a9.26,9.26,0,0,1,3.19.49,7,7,0,0,1,2.18,1.23,6.25,6.25,0,0,1,1.36,1.67,8.23,8.23,0,0,1,.74,1.75,9.22,9.22,0,0,1,.3,1.52q.06.67.06,1c0,.18,0,.5-.06,1a9.22,9.22,0,0,1-.3,1.52,8.23,8.23,0,0,1-.74,1.75,6.25,6.25,0,0,1-1.36,1.67,7,7,0,0,1-2.18,1.23,9,9,0,0,1-3.19.49h-4.47ZM438,117.73h2.77a9.23,9.23,0,0,0,2.68-.38,6,6,0,0,0,2.17-1.15,5.5,5.5,0,0,0,1.45-2,7.79,7.79,0,0,0,0-5.65,5.5,5.5,0,0,0-1.45-2,6,6,0,0,0-2.17-1.15,9.23,9.23,0,0,0-2.68-.38H438Z"/><path d="M452,103.79h8.85v1.29h-7.5v5.42h7v1.29h-7v5.94h7.82V119H452Z"/><path d="M464.1,103.79h4.16a7.49,7.49,0,0,1,1.59.19,4.48,4.48,0,0,1,1.51.63,3.45,3.45,0,0,1,1.12,1.24,3.91,3.91,0,0,1,.44,2,4.1,4.1,0,0,1-.36,1.78,3.37,3.37,0,0,1-1,1.24,4.13,4.13,0,0,1-1.38.72,6,6,0,0,1-1.65.23h-3.13V119H464.1Zm1.34,6.71h3.07a4.25,4.25,0,0,0,1.12-.14,2.67,2.67,0,0,0,1-.45,2.29,2.29,0,0,0,.7-.83,3.1,3.1,0,0,0,0-2.51,2.49,2.49,0,0,0-.72-.85,2.86,2.86,0,0,0-1-.48,4.08,4.08,0,0,0-1.14-.16h-3Z"/><path d="M475.82,103.79h8.85v1.29h-7.5v5.42h7v1.29h-7v5.94H485V119h-9.18Z"/><path d="M487.94,103.79h1.74l8.8,13.33h0V103.79h1.35V119h-1.74l-8.8-13.33h0V119h-1.35Z"/><path d="M503.65,103.79h4.47a9.26,9.26,0,0,1,3.19.49,7,7,0,0,1,2.18,1.23,6.29,6.29,0,0,1,1.37,1.67,8.72,8.72,0,0,1,.73,1.75,8.28,8.28,0,0,1,.3,1.52q.06.67.06,1c0,.18,0,.5-.06,1a8.28,8.28,0,0,1-.3,1.52,8.72,8.72,0,0,1-.73,1.75,6.29,6.29,0,0,1-1.37,1.67,7,7,0,0,1-2.18,1.23,9,9,0,0,1-3.19.49h-4.47ZM505,117.73h2.78a9.21,9.21,0,0,0,2.67-.38,6,6,0,0,0,2.17-1.15,5.38,5.38,0,0,0,1.45-2,7.79,7.79,0,0,0,0-5.65,5.38,5.38,0,0,0-1.45-2,6,6,0,0,0-2.17-1.15,9.21,9.21,0,0,0-2.67-.38H505Z"/><path d="M519,103.79h1.35V119H519Z"/><path d="M524.28,103.79h8.85v1.29h-7.5v5.42h7v1.29h-7v5.94h7.83V119h-9.18Z"/><path d="M536.4,103.79h1.74l8.8,13.33h0V103.79h1.35V119H546.6l-8.81-13.33h0V119H536.4Z"/><path d="M555.5,105.08h-4.94v-1.29H561.8v1.29h-4.95V119H555.5Z"/><path d="M564,103.79h8.85v1.29h-7.5v5.42h7v1.29h-7v5.94h7.83V119H564Z"/><path d="M581.45,103.79h8.85v1.29h-7.5v5.42h7v1.29h-7v5.94h7.82V119h-9.17Z"/><path d="M593.56,103.79h1.74l8.81,13.33h0V103.79h1.35V119h-1.74L595,105.69h0V119h-1.35Z"/><path class="cls-1" d="M614.77,103.79h1.35v13.94h6.74V119h-8.09Z"/><path class="cls-1" d="M629.42,103.79h1.39L636.9,119h-1.51l-1.58-4h-7.66l-1.63,4h-1.41Zm.63,1.55-3.37,8.34h6.64Z"/><path class="cls-1" d="M640.8,105.08h-4.94v-1.29h11.23v1.29h-4.94V119H640.8Z"/><path class="cls-1" d="M649.32,103.79h1.35V119h-1.35Z"/><path class="cls-1" d="M654.63,103.79h1.74l8.8,13.33h.05V103.79h1.34V119h-1.73L656,105.69h0V119h-1.35Z"/><path class="cls-1" d="M669.59,111.41a9,9,0,0,1,.55-3.21,7.81,7.81,0,0,1,1.53-2.52A6.89,6.89,0,0,1,674,104a8,8,0,0,1,6.07,0,7,7,0,0,1,2.36,1.67A7.81,7.81,0,0,1,684,108.2a9.64,9.64,0,0,1,0,6.42,7.8,7.8,0,0,1-1.53,2.54,6.8,6.8,0,0,1-2.36,1.65,8.1,8.1,0,0,1-6.07,0,6.71,6.71,0,0,1-2.36-1.65,7.8,7.8,0,0,1-1.53-2.54A9,9,0,0,1,669.59,111.41Zm1.35,0a8.12,8.12,0,0,0,.42,2.64,6.4,6.4,0,0,0,1.23,2.13,5.73,5.73,0,0,0,1.93,1.42,6.61,6.61,0,0,0,5.09,0,5.83,5.83,0,0,0,1.93-1.42,6.21,6.21,0,0,0,1.22-2.13,8.35,8.35,0,0,0,0-5.29,6.21,6.21,0,0,0-1.22-2.13,5.83,5.83,0,0,0-1.93-1.42,6.61,6.61,0,0,0-5.09,0,5.73,5.73,0,0,0-1.93,1.42,6.4,6.4,0,0,0-1.23,2.13A8.13,8.13,0,0,0,670.94,111.41Z"/><path class="cls-1" d="M692,103.79h1.39L699.48,119H698l-1.58-4h-7.66l-1.63,4h-1.41Zm.63,1.55-3.37,8.34h6.64Z"/><path class="cls-1" d="M701.42,103.79h2l5.27,12.78L714,103.79h1.92V119h-1.35V105.6h0L709,119h-.59l-5.6-13.42h0V119h-1.35Z"/><path class="cls-1" d="M719.72,103.79h8.85v1.29h-7.5v5.42h7v1.29h-7v5.94h7.83V119h-9.18Zm5-4h1.63l-2.73,3.1h-1Z"/><path class="cls-1" d="M731.84,103.79h3.8l.78,0a6.11,6.11,0,0,1,1.06.13,5.84,5.84,0,0,1,1.16.34,3.24,3.24,0,0,1,1.06.69,3.39,3.39,0,0,1,.78,1.14,4.15,4.15,0,0,1,.31,1.67,4,4,0,0,1-.36,1.81,3.49,3.49,0,0,1-.9,1.15,4,4,0,0,1-1.19.66,8.33,8.33,0,0,1-1.25.3L741.3,119h-1.53l-4.07-7.23h-2.51V119h-1.35Zm1.35,6.71h2.86a4.38,4.38,0,0,0,1.72-.28,2.68,2.68,0,0,0,1-.68,2.24,2.24,0,0,0,.51-.89,3.52,3.52,0,0,0,.13-.86,3.67,3.67,0,0,0-.13-.86,2.2,2.2,0,0,0-.51-.88,2.81,2.81,0,0,0-1-.69,4.57,4.57,0,0,0-1.72-.28h-2.86Z"/><path class="cls-1" d="M744,103.79h1.35V119H744Z"/><path class="cls-1" d="M761.18,116.63a6.26,6.26,0,0,1-2.41,2.13,6.89,6.89,0,0,1-3,.64,7.51,7.51,0,0,1-3-.59,6.71,6.71,0,0,1-2.36-1.65,7.8,7.8,0,0,1-1.53-2.54,9.64,9.64,0,0,1,0-6.42,7.81,7.81,0,0,1,1.53-2.52,6.89,6.89,0,0,1,2.36-1.67,7.52,7.52,0,0,1,3-.6,6.82,6.82,0,0,1,2.75.55,5.45,5.45,0,0,1,2.24,1.83l-1.1,1a4.07,4.07,0,0,0-1.73-1.57,5,5,0,0,0-2.16-.49,6.13,6.13,0,0,0-2.54.51,5.73,5.73,0,0,0-1.93,1.42,6.4,6.4,0,0,0-1.23,2.13,8.54,8.54,0,0,0,0,5.29,6.4,6.4,0,0,0,1.23,2.13,5.73,5.73,0,0,0,1.93,1.42,6.13,6.13,0,0,0,2.54.51A4.69,4.69,0,0,0,757,118a4.59,4.59,0,0,0,1.15-.43,5.27,5.27,0,0,0,1.08-.73,4.4,4.4,0,0,0,.89-1.06Z"/><path class="cls-1" d="M768.08,103.79h1.39L775.56,119h-1.51l-1.58-4h-7.66l-1.63,4h-1.41Zm.64,1.55-3.37,8.34H772Z"/></g><g id="Layer_4_Image" data-name="Layer 4 Image"><path class="cls-1" d="M35.28,32.8l-.8.69A82.88,82.88,0,0,0,18.86,50.26a39.51,39.51,0,0,0-6.32,14.48,29,29,0,0,0,2.33,18.38,42.65,42.65,0,0,0,14.7,17.71A32.38,32.38,0,0,0,51.24,106,49.75,49.75,0,0,0,62,103.7a24.93,24.93,0,0,0,4.82-2.27,42.2,42.2,0,0,0,8.35-6.8,18,18,0,0,0,5-9.93c.73-4.23,1.53-8.44,2.25-12.67.32-1.89.06-2.11-1.86-1.76a33.46,33.46,0,0,0-8.89,2.91,8.76,8.76,0,0,0-4.83,5.94,2.64,2.64,0,0,1-.36,1c-.33.39-.75.89-1.18,1A1.4,1.4,0,0,1,64,80a1.89,1.89,0,0,1,.56-2c1-.94,2-1.89,2.91-2.89a2.18,2.18,0,0,0,.16-2.28A1.23,1.23,0,0,0,66.14,72c-1.48.17-3,.37-4.42.64a3.49,3.49,0,0,0-2.21,1.46,1.54,1.54,0,0,1-2.57,0c-.42-.6-.91-1.26-.5-2.07A2.72,2.72,0,0,1,59,70.76a12.25,12.25,0,0,0,5.15.06c1.36-.28,1.74-1.07,1.05-2.26a4.79,4.79,0,0,0-1.29-1.5c-1.22-.88-2.38-1.87-4-2-.5,0-1-.85-1.39-1.42a2,2,0,0,1-.1-2.39c.65-.77,1.51-.44,2.32-.25a2.21,2.21,0,0,1,1.79,1.82,1.08,1.08,0,0,0,.23.57,38.57,38.57,0,0,0,3.15,2.85c1,.71,1.73.27,1.62-.91a17.68,17.68,0,0,0-.76-4.09c-.18-.56-1-1-1.58-1.34a2.36,2.36,0,0,1-.7-3.29,1.16,1.16,0,0,1,1.72-.09c.41.4.73.87,1.11,1.3a6.72,6.72,0,0,1,.75.76A4.92,4.92,0,0,1,68.76,60c.28,1.25.43,2.54.66,3.82.08.5.25,1,.92.89S71.76,65,72,64a9.41,9.41,0,0,1,.79-2c.36-.77.89-1,1.47-.7a1.4,1.4,0,0,1,.57,1.87,3.91,3.91,0,0,1-.65.76,15.82,15.82,0,0,1-1.44,1.29c-1.22.91-1.29,2.16-1.15,3.49a.89.89,0,0,0,.94.91,7.34,7.34,0,0,0,4.85-1.31,21.78,21.78,0,0,1,9.4-3.61c1.78-.28,2.34.14,2.67,1.95.24,1.32.31,2.67.44,4s.19,2.58.36,3.86c.09.65.22,1.43,1,1.61s1.26-.45,1.58-1a32.54,32.54,0,0,0,1.86-3.74A43.27,43.27,0,0,0,97.64,60a6.31,6.31,0,0,0-.33-1.82c-.56.17-1.14.33-1.69.53a1.7,1.7,0,0,0-.58.39c-1.94,1.85-4.3,2.08-6.8,1.76a11.56,11.56,0,0,0-1.55-.12c-3.17,0-5.75-1.73-8.45-3a4,4,0,0,0-3.09-.35,6.86,6.86,0,0,0-3.65,1.87.82.82,0,0,1-1.35,0A1.07,1.07,0,0,1,70,59c-.21-.48-.41-1-.61-1.44A10.11,10.11,0,0,1,70.72,57c.85-.2,1.74-.27,2.58-.51.32-.1.56-.51.84-.78-.3-.26-.57-.65-.91-.74A16.44,16.44,0,0,0,71,54.67a9.49,9.49,0,0,0-3.35.29c-1.44.36-2.3-.47-2.11-1.82a1.59,1.59,0,0,1,2.34-1.21,1.28,1.28,0,0,1,.38.26c1.5,1.67,3.26,1.16,5,.57.81-.27,1-.78.33-1.39a6.89,6.89,0,0,0-3.76-2.31,2.05,2.05,0,0,1-1.21-.7,1.59,1.59,0,0,1,.31-2.1,1.78,1.78,0,0,1,2.21.51c1.13,1.44,2.27,2.87,3.46,4.27a1.92,1.92,0,0,0,1,.53c.63.12,1-.2,1-.86s0-1.56,0-2.33a3,3,0,0,1,.3-1c.23-.54.56-1,.77-1.59A2.34,2.34,0,0,1,80.79,45c.59.48.31,1.41-.53,1.8a18.23,18.23,0,0,0-1.65.84.75.75,0,0,0-.31.6c.17.81.4,1.6.63,2.4a1.08,1.08,0,0,0,1.1.81,3.57,3.57,0,0,0,4-2.68,1.19,1.19,0,0,1,1.41-.91c.58.08,1.06.43,1,1a1.42,1.42,0,0,1-.84,1c-2,.41-2.79,2-3.53,3.5a2.06,2.06,0,0,0,1.17,2.83c1.25.55,2.55,1,3.83,1.48a3.35,3.35,0,0,0,2.49-.07c3.38-1.3,6.28-3.14,7.9-6.59a7,7,0,0,1,1.8-2.19,40,40,0,0,1,5-4,2.72,2.72,0,0,0,1.35-2.9c-.26-2.73-.62-5.45-1-8.16-.22-1.75-.57-3.48-.69-5.23a17.36,17.36,0,0,1,2.08-9.43A29.65,29.65,0,0,1,115.7,8.31a14.13,14.13,0,0,1,3.83-1.8,3.93,3.93,0,0,1,4.87,2A13.2,13.2,0,0,1,126,13.78a50.13,50.13,0,0,1-.69,15.07,11.29,11.29,0,0,1-1.8,4.24c-1.65,2.4-3.53,4.65-5.39,6.9a5.74,5.74,0,0,0-1.24,2.27c-.94,3.94-.81,3.27,1.25,6q3.39,4.44,6.79,8.89c.36.46.77.88,1.25,1.42a8.7,8.7,0,0,0,.74-1q.93-1.83,1.8-3.69a1.84,1.84,0,0,0,.12-.9c-.1-1-.22-2.06-.4-3.08a2.23,2.23,0,0,0-.48-1c-.37-.44-.85-.77-1.21-1.21a2.87,2.87,0,0,0-3-1.25.84.84,0,0,1-1-.7A3.32,3.32,0,0,1,122.7,44c.08-.22.81-.3,1.23-.26,1,.09,1.45.92,2.06,1.53a9.11,9.11,0,0,0,.92.94c.5.39,1,.25,1.18-.32a3.28,3.28,0,0,0,.12-1.72c-.35-1.13-.88-2.21-1.33-3.31a1.16,1.16,0,0,0-1-.82c-.66-.08-.88-.57-.91-1.17A1.59,1.59,0,0,1,126,37.22a1,1,0,0,1,1.34.46,10.68,10.68,0,0,1,.59,1.34q1,2.19,2,4.36a2.07,2.07,0,0,0,.41.56c.44.4.95.41,1.07-.21.26-1.4.42-2.83.56-4.25a13.14,13.14,0,0,1,0-1.77,2.52,2.52,0,0,1,.9-1.35c.94-.64,1.75-.16,1.75,1a3.86,3.86,0,0,1-.18,1.6,8.13,8.13,0,0,0-.39,3.75c0,.57,0,1.28.77,1.43A2.23,2.23,0,0,0,137,43.6c.7-.75,1.4-1.51,2.14-2.23a3.18,3.18,0,0,1,.91-.57c.57-.27,1.09-.33,1.39.42s.17,1.27-.57,1.57-1.42.48-2.11.78a2,2,0,0,0-1,.76,11.5,11.5,0,0,0-.9,2.69c-.16.85.23,1.2,1.26,1.24,1.47.06,2.95,0,4.42.07,1.06,0,1.41.47,1.28,1.48s-.54,1.16-1.55,1c-1.43-.21-2.87-.42-4.29-.66a3.15,3.15,0,0,0-2.88.74,5,5,0,0,1-1.82,1,2.58,2.58,0,0,0-1.74,1.81c-.66,2.15-1.33,4.3-2,6.43a15,15,0,0,1-.92,2.14c-.62,1.18-1.08,1.3-2.21.57a18.12,18.12,0,0,1-2-1.52c-.8-.69-1.56-1.44-2.35-2.15-.63-.57-1.26-1.15-1.94-1.66-1.1-.84-1.48-.78-1.94.49-1.15,3.1-2.2,6.24-3.29,9.36-.53,1.52-1.09,3-1.59,4.54-1.7,5.24-5.12,9.36-8.75,13.32-2.14,2.33-4.34,4.6-6.55,6.85a1.16,1.16,0,0,0-.28,1.57q3.47,7.45,6.82,15a33.67,33.67,0,0,1,1.08,3.31,2.14,2.14,0,0,1-.72,2.51c-2,1.59-4,3.19-6.06,4.72-1.82,1.36-3.72,2.63-5.57,4a3.91,3.91,0,0,0-.63.8,3.33,3.33,0,0,0,1,.35c1,0,2.06-.07,3.09-.17a1.32,1.32,0,0,0,.75-.47,3.45,3.45,0,0,1,2.49-1.25,1.61,1.61,0,0,1,1.8,1.68,1.59,1.59,0,0,1-1.44,1.71,4.3,4.3,0,0,1-1.59-.2,4.48,4.48,0,0,0-3.3.47c-.41.19-.58,1-.78,1.48,0,.09.32.46.52.48,1.93.19,3.86.36,5.8.46a11.55,11.55,0,0,0,1.84-.22c1.41-.16,2.09.5,1.9,1.89a3.55,3.55,0,0,1-.46,1.3,1.28,1.28,0,0,1-1.9.57,4.78,4.78,0,0,1-1.16-.77c-1.54-1.41-3.46-1.33-5.33-1.37-.72,0-1,.49-.75,1.19.45,1.17.9,2.32,2.27,2.85A3,3,0,0,1,98.72,138a1.09,1.09,0,0,1-1.5.55,3.86,3.86,0,0,1-2.45-2.77,22.55,22.55,0,0,0-1.8-4.35c-.15-.3-1-.27-1.55-.29-.09,0-.27.53-.28.82-.11,2.54-.19,5.07-.28,7.61-.07,1.7-.48,2-2.11,1.59a4.45,4.45,0,0,1-1.21-.51c-1.07-.66-1.35-1.78-.42-2.59,1.53-1.33,1.61-3,1.48-4.73-.07-.85-.18-1.7-.28-2.54a1,1,0,0,0-1.08-.92,2.61,2.61,0,0,0-2.06.69c-.92.91-1.9,1.76-2.85,2.64-.51.46-1.13.87-1,1.71a.11.11,0,0,1,0,.08c-.2.69-1.45,1.26-2.66,1.22-.81,0-1.25-.47-1.46-1.43a1.64,1.64,0,0,1,1-2.11,3.91,3.91,0,0,1,1-.39c2.92-.53,4.57-2.59,5.94-4.94a15.63,15.63,0,0,0,1.09-2.56A5,5,0,0,1,88.37,122c2.22-1.38,4.43-2.78,6.6-4.23a22.76,22.76,0,0,0,2.71-2.19c.74-.69.69-1,.09-1.79q-3.83-5-7.66-10.07c-.52-.68-1.13-1.28-1.68-1.94a1.19,1.19,0,0,0-1.68-.3c-3.77,1.84-7.51,3.73-11.34,5.43A83.57,83.57,0,0,1,54.55,113a33.94,33.94,0,0,1-20.09-3.06c-8.73-4.07-15.82-10-20.53-18.51A50.36,50.36,0,0,1,8.17,75.27a25.3,25.3,0,0,1,1-12c1.68-5.31,3.63-10.51,7-15.07A51.3,51.3,0,0,1,31.07,35c1.33-.83,2.71-1.59,4.07-2.38Z"/></g></svg>