<svg xmlns="http://www.w3.org/2000/svg" fill="none" viewBox="0 0 1200 79">
  <g fill="#000" opacity=".3">
    <path d="M242.58 23.929h-.006c-.859 0-1.555.448-1.555 1v30.749c0 .552.696 1 1.555 1h.006c.858 0 1.555-.448 1.555-1V24.929c0-.552-.697-1-1.555-1Zm6.474 26.225c0 .552.697 1 1.555 1s1.555-.448 1.555-1V30.449c0-.552-.697-1-1.555-1s-1.555.448-1.555 1v19.705Zm8.035-3.315c0 .552.697 1 1.555 1s1.555-.448 1.555-1V34.125c0-.552-.697-1.001-1.555-1.001s-1.555.449-1.555 1V46.84Zm8.035 3.315c0 .552.697 1 1.555 1s1.555-.448 1.555-1V30.449c0-.552-.697-1-1.555-1s-1.555.448-1.555 1v19.705Zm8.035 4.306c0 .551.697 1 1.555 1s1.555-.449 1.555-1V26.142c0-.552-.697-1-1.555-1s-1.555.448-1.555 1V54.46Zm8.029 6.506c0 .552.698 1 1.555 1 .858 0 1.555-.448 1.555-1v-43.32c0-.552-.697-1-1.555-1-.857 0-1.555.448-1.555 1v43.32Zm8.036 8.365c0 .552.697 1.001 1.555 1.001.857 0 1.555-.449 1.555-1V9.28c0-.552-.698-1-1.555-1-.858 0-1.555.448-1.555 1v60.05Zm8.035-14.94c0 .552.697 1 1.555 1s1.555-.448 1.555-1V24.223c0-.552-.697-1-1.555-1s-1.555.448-1.555 1v30.168Zm8.035 5.699c0 .552.697 1 1.555 1s1.555-.448 1.555-1V18.522c0-.552-.697-1-1.555-1s-1.555.448-1.555 1V60.09Zm8.035-6.506c0 .551.697 1 1.555 1s1.555-.449 1.555-1V25.029c0-.552-.697-1-1.555-1s-1.555.448-1.555 1v28.555Zm8.035-5.429c0 .552.697 1.001 1.555 1.001.857 0 1.555-.449 1.555-1v-17.7c0-.552-.698-1-1.555-1-.858 0-1.555.448-1.555 1v17.7Zm8.035 11.981c0 .552.698 1.001 1.555 1.001.858 0 1.555-.449 1.555-1v-41.66c0-.553-.697-1.001-1.555-1.001-.857 0-1.555.448-1.555 1v41.66Zm8.035 9.584c0 .551.697 1 1.555 1s1.555-.449 1.555-1V8.891c0-.552-.697-1-1.555-1s-1.555.448-1.555 1V69.72Zm9.59-53.987h-.006c-.858 0-1.555.448-1.555 1.001v45.147c0 .552.697 1 1.555 1h.006c.859 0 1.555-.448 1.555-1V16.734c0-.553-.696-1-1.555-1Zm6.475 38.89c0 .552.697 1 1.555 1 .857 0 1.555-.448 1.555-1V23.99c0-.552-.698-1-1.555-1-.858 0-1.555.448-1.555 1v30.634Zm8.034 15.2c0 .552.697 1 1.555 1s1.555-.448 1.555-1V8.79c0-.552-.697-1-1.555-1s-1.555.448-1.555 1v61.033ZM371.129 0h-.006c-.858 0-1.555.448-1.555 1v76.611c0 .553.697 1 1.555 1h.006c.859 0 1.555-.447 1.555-1V1.001c0-.553-.696-1.001-1.555-1.001Zm6.475 70.912c0 .552.697 1 1.555 1 .857 0 1.554-.448 1.554-1V7.702c0-.551-.697-1-1.554-1-.858 0-1.555.449-1.555 1v63.21Zm8.035-9.597c0 .552.697 1 1.555 1 .857 0 1.555-.448 1.555-1V17.298c0-.552-.698-1.001-1.555-1.001-.858 0-1.555.449-1.555 1v44.018Zm8.035 6.602c0 .552.697 1 1.555 1s1.555-.448 1.555-1V10.698c0-.552-.697-1-1.555-1s-1.555.448-1.555 1v57.22Zm8.035-12.507c0 .552.697 1 1.555 1s1.555-.448 1.555-1V23.202c0-.552-.697-1-1.555-1s-1.555.448-1.555 1V55.41ZM410 46.667c0 .552.697 1.001 1.555 1.001s1.555-.449 1.555-1V31.944c0-.552-.697-1-1.555-1s-1.555.448-1.555 1v14.722Zm40 0c0 .552.697 1.001 1.555 1.001s1.555-.449 1.555-1V31.944c0-.552-.697-1-1.555-1s-1.555.448-1.555 1v14.722Zm-31.965 8.925c0 .552.697 1 1.555 1s1.555-.448 1.555-1V23.024c0-.552-.697-1-1.555-1s-1.555.448-1.555 1v32.568Zm8.036-3.422c0 .552.697 1 1.555 1s1.555-.448 1.555-1V26.443c0-.552-.697-1-1.555-1s-1.555.448-1.555 1V52.17Zm8.034 14.694c0 .552.698 1 1.555 1 .858 0 1.555-.448 1.555-1V11.753c0-.552-.697-1.001-1.555-1.001-.857 0-1.555.449-1.555 1v55.112ZM442 54.16c0 .552.697 1 1.555 1s1.555-.448 1.555-1V24.452c0-.552-.697-1-1.555-1s-1.555.448-1.555 1V54.16Zm23.983-7.667c0 .552.698 1 1.555 1 .858 0 1.555-.448 1.555-1V32.116c0-.552-.697-1-1.555-1-.857 0-1.555.448-1.555 1v14.377Zm9.591 5.381c.857 0 1.555-.449 1.555-1V27.742c0-.552-.698-1-1.555-1-.858 0-1.555.448-1.555 1v23.13c0 .553.697 1.001 1.555 1.001ZM1.56 23.929h-.005c-.859 0-1.555.448-1.555 1v30.749c0 .552.696 1 1.555 1h.006c.858 0 1.555-.448 1.555-1V24.929c0-.552-.697-1-1.555-1Zm6.475 26.225c0 .552.697 1 1.555 1s1.555-.448 1.555-1V30.449c0-.552-.697-1-1.555-1s-1.555.448-1.555 1v19.705Zm8.035-3.315c0 .552.697 1 1.555 1s1.555-.448 1.555-1V34.125c0-.552-.697-1.001-1.555-1.001s-1.555.449-1.555 1V46.84Zm8.035 3.315c0 .552.697 1 1.555 1s1.555-.448 1.555-1V30.449c0-.552-.697-1-1.555-1s-1.555.448-1.555 1v19.705Zm8.035 4.306c0 .551.697 1 1.555 1s1.555-.449 1.555-1V26.142c0-.552-.697-1-1.555-1s-1.555.448-1.555 1V54.46Zm8.03 6.506c0 .552.697 1 1.555 1s1.555-.448 1.555-1v-43.32c0-.552-.697-1-1.555-1s-1.555.448-1.555 1v43.32Zm8.035 8.365c0 .552.697 1.001 1.555 1.001s1.555-.449 1.555-1V9.28c0-.552-.697-1-1.555-1s-1.555.448-1.555 1v60.05Zm8.035-14.94c0 .552.697 1 1.555 1s1.555-.448 1.555-1V24.223c0-.552-.697-1-1.555-1s-1.555.448-1.555 1v30.168Zm8.034 5.699c0 .552.698 1 1.555 1 .858 0 1.555-.448 1.555-1V18.522c0-.552-.697-1-1.555-1-.857 0-1.555.448-1.555 1V60.09Zm8.036-6.506c0 .551.697 1 1.555 1 .857 0 1.555-.449 1.555-1V25.029c0-.552-.698-1-1.555-1-.858 0-1.555.448-1.555 1v28.555Zm8.035-5.429c0 .552.697 1.001 1.555 1.001.857 0 1.555-.449 1.555-1v-17.7c0-.552-.698-1-1.555-1-.858 0-1.555.448-1.555 1v17.7Zm8.035 11.981c0 .552.697 1.001 1.555 1.001s1.555-.449 1.555-1v-41.66c0-.553-.697-1.001-1.555-1.001s-1.555.448-1.555 1v41.66Zm8.035 9.584c0 .551.697 1 1.555 1s1.555-.449 1.555-1V8.891c0-.552-.697-1-1.555-1s-1.555.448-1.555 1V69.72Zm9.59-53.987h-.006c-.858 0-1.555.448-1.555 1.001v45.147c0 .552.697 1 1.555 1h.006c.859 0 1.555-.448 1.555-1V16.734c0-.553-.696-1-1.555-1Zm6.474 38.89c0 .552.698 1 1.555 1 .858 0 1.555-.448 1.555-1V23.99c0-.552-.697-1-1.555-1-.857 0-1.555.448-1.555 1v30.634Zm8.036 15.2c0 .552.697 1 1.555 1 .857 0 1.555-.448 1.555-1V8.79c0-.552-.698-1-1.555-1-.858 0-1.555.448-1.555 1v61.033ZM130.11 0h-.005c-.859 0-1.555.448-1.555 1v76.611c0 .553.696 1 1.555 1h.005c.859 0 1.555-.447 1.555-1V1.001c0-.553-.696-1.001-1.555-1.001Zm6.474 70.912c0 .552.698 1 1.555 1 .858 0 1.555-.448 1.555-1V7.702c0-.551-.697-1-1.555-1-.857 0-1.555.449-1.555 1v63.21Zm8.036-9.597c0 .552.697 1 1.555 1 .857 0 1.555-.448 1.555-1V17.298c0-.552-.698-1.001-1.555-1.001-.858 0-1.555.449-1.555 1v44.018Zm8.034 6.602c0 .552.698 1 1.555 1 .858 0 1.555-.448 1.555-1V10.698c0-.552-.697-1-1.555-1-.857 0-1.555.448-1.555 1v57.22Zm8.035-12.507c0 .552.698 1 1.555 1 .858 0 1.555-.448 1.555-1V23.202c0-.552-.697-1-1.555-1-.857 0-1.555.448-1.555 1V55.41Zm8.036-4.68c0 .553.697 1.002 1.555 1.002.857 0 1.555-.45 1.555-1.001V27.88c0-.551-.698-1-1.555-1-.858 0-1.555.449-1.555 1v22.85Zm8.029-4.063c0 .552.697 1.001 1.555 1.001s1.555-.449 1.555-1V31.944c0-.552-.697-1-1.555-1s-1.555.448-1.555 1v14.722Zm8.035 8.925c0 .552.697 1 1.555 1s1.555-.448 1.555-1V23.024c0-.552-.697-1-1.555-1s-1.555.448-1.555 1v32.568Zm8.036-3.423c0 .552.697 1 1.555 1 .857 0 1.555-.448 1.555-1V26.442c0-.552-.698-1-1.555-1-.858 0-1.555.448-1.555 1V52.17Zm8.034 14.695c0 .552.698 1 1.555 1 .858 0 1.555-.448 1.555-1V11.753c0-.552-.697-1.001-1.555-1.001-.857 0-1.555.449-1.555 1v55.112Zm8.035-4.05c0 .552.697 1 1.555 1s1.555-.448 1.555-1V15.801c0-.552-.697-1-1.555-1s-1.555.448-1.555 1v47.013Zm8.035-8.654c0 .552.697 1 1.555 1s1.555-.448 1.555-1V24.452c0-.552-.697-1-1.555-1s-1.555.448-1.555 1V54.16Zm8.035-7.667c0 .552.698 1 1.555 1 .858 0 1.555-.448 1.555-1V32.116c0-.552-.697-1-1.555-1-.857 0-1.555.448-1.555 1v14.377Zm9.59 5.381c.858 0 1.555-.449 1.555-1V27.742c0-.552-.697-1-1.555-1s-1.555.448-1.555 1v23.13c0 .553.697 1.001 1.555 1.001Zm491.41-27.945h-.006c-.858 0-1.555.448-1.555 1v30.749c0 .552.697 1 1.555 1h.006c.859 0 1.555-.448 1.555-1V24.929c0-.552-.696-1-1.555-1Zm14.51 22.91c0 .552.697 1 1.555 1 .857 0 1.555-.448 1.555-1V34.125c0-.552-.698-1.001-1.555-1.001-.858 0-1.555.449-1.555 1V46.84Zm8.034 3.315c0 .552.697 1 1.555 1s1.555-.448 1.555-1V30.449c0-.552-.697-1-1.555-1s-1.555.448-1.555 1v19.705Zm8.035 4.306c0 .551.697 1 1.555 1s1.555-.449 1.555-1V26.142c0-.552-.697-1-1.555-1s-1.555.448-1.555 1V54.46Zm8.03 6.506c0 .552.698 1 1.555 1 .858 0 1.555-.448 1.555-1v-43.32c0-.552-.697-1-1.555-1-.857 0-1.555.448-1.555 1v43.32Zm8.035 8.365c0 .552.697 1.001 1.555 1.001s1.555-.449 1.555-1V9.28c0-.552-.697-1-1.555-1s-1.555.448-1.555 1v60.05Zm8.035-14.94c0 .552.697 1 1.555 1s1.555-.448 1.555-1V24.223c0-.552-.697-1-1.555-1s-1.555.448-1.555 1v30.168Zm16.07-.807c0 .551.697 1 1.555 1s1.555-.449 1.555-1V25.029c0-.552-.697-1-1.555-1s-1.555.448-1.555 1v28.555Zm8.035-5.429c0 .552.697 1.001 1.555 1.001s1.555-.449 1.555-1v-17.7c0-.552-.697-1-1.555-1s-1.555.448-1.555 1v17.7Zm-15.748 0c0 .552.697 1.001 1.555 1.001s1.555-.449 1.555-1v-17.7c0-.552-.697-1-1.555-1s-1.555.448-1.555 1v17.7Zm40 0c0 .552.697 1.001 1.555 1.001s1.555-.449 1.555-1v-17.7c0-.552-.697-1-1.555-1s-1.555.448-1.555 1v17.7Zm-16.217 11.981c0 .552.697 1.001 1.555 1.001s1.555-.449 1.555-1v-41.66c0-.553-.697-1.001-1.555-1.001s-1.555.448-1.555 1v41.66Zm8.035 9.584c0 .551.698 1 1.555 1 .858 0 1.555-.449 1.555-1V8.891c0-.552-.697-1-1.555-1-.857 0-1.555.448-1.555 1V69.72Zm16.065-15.097c0 .552.697 1 1.555 1s1.555-.448 1.555-1V23.99c0-.552-.697-1-1.555-1s-1.555.448-1.555 1v30.634Zm8.034 15.2c0 .552.698 1 1.555 1 .858 0 1.555-.448 1.555-1V8.79c0-.552-.697-1-1.555-1-.857 0-1.555.448-1.555 1v61.033ZM854.513 0h-.005c-.859 0-1.555.448-1.555 1v76.611c0 .553.696 1 1.555 1h.005c.859 0 1.555-.447 1.555-1V1.001c0-.553-.696-1.001-1.555-1.001Zm6.474 70.912c0 .552.698 1 1.555 1 .858 0 1.555-.448 1.555-1V7.702c0-.551-.697-1-1.555-1-.857 0-1.555.449-1.555 1v63.21Zm8.035-9.597c0 .552.698 1 1.555 1 .858 0 1.555-.448 1.555-1V17.298c0-.552-.697-1.001-1.555-1.001-.857 0-1.555.449-1.555 1v44.018Zm8.036 6.602c0 .552.697 1 1.555 1 .857 0 1.555-.448 1.555-1V10.698c0-.552-.698-1-1.555-1-.858 0-1.555.448-1.555 1v57.22Zm8.035-12.507c0 .552.697 1 1.555 1 .857 0 1.555-.448 1.555-1V23.202c0-.552-.698-1-1.555-1-.858 0-1.555.448-1.555 1V55.41Zm8.035-4.68c0 .553.697 1.002 1.555 1.002s1.555-.45 1.555-1.001V27.88c0-.551-.697-1-1.555-1s-1.555.449-1.555 1v22.85Zm8.029-4.063c0 .552.697 1.001 1.555 1.001s1.555-.449 1.555-1V31.944c0-.552-.697-1-1.555-1s-1.555.448-1.555 1v14.722Zm8.035 8.925c0 .552.698 1 1.555 1 .858 0 1.555-.448 1.555-1V23.024c0-.552-.697-1-1.555-1-.857 0-1.555.448-1.555 1v32.568Zm8.036-3.423c0 .552.697 1 1.555 1 .857 0 1.555-.448 1.555-1V26.442c0-.552-.698-1-1.555-1-.858 0-1.555.448-1.555 1V52.17Zm8.034 14.695c0 .552.697 1 1.555 1s1.555-.448 1.555-1V11.753c0-.552-.697-1.001-1.555-1.001s-1.555.449-1.555 1v55.112Zm8.035-4.05c0 .552.698 1 1.555 1 .858 0 1.555-.448 1.555-1V15.801c0-.552-.697-1-1.555-1-.857 0-1.555.448-1.555 1v47.013Zm8.036-8.654c0 .552.697 1 1.555 1 .857 0 1.554-.448 1.554-1V24.452c0-.552-.697-1-1.554-1-.858 0-1.555.448-1.555 1V54.16Zm8.035-7.667c0 .552.697 1 1.555 1 .857 0 1.555-.448 1.555-1V32.116c0-.552-.698-1-1.555-1-.858 0-1.555.448-1.555 1v14.377Zm9.589 5.381c.858 0 1.555-.449 1.555-1V27.742c0-.552-.697-1-1.555-1-.857 0-1.555.448-1.555 1v23.13c0 .553.698 1.001 1.555 1.001Z"/>
    <path d="M909.192 55.592c0 .552.698 1 1.555 1 .858 0 1.555-.448 1.555-1V23.024c0-.552-.697-1-1.555-1-.857 0-1.555.448-1.555 1v32.568Zm8.036-3.423c0 .552.697 1 1.555 1 .857 0 1.555-.448 1.555-1V26.442c0-.552-.698-1-1.555-1-.858 0-1.555.448-1.555 1V52.17Zm8.034 14.695c0 .552.697 1 1.555 1s1.555-.448 1.555-1V11.753c0-.552-.697-1.001-1.555-1.001s-1.555.449-1.555 1v55.112Zm8.035-4.05c0 .552.698 1 1.555 1 .858 0 1.555-.448 1.555-1V15.801c0-.552-.697-1-1.555-1-.857 0-1.555.448-1.555 1v47.013Zm8.036-8.654c0 .552.697 1 1.555 1 .857 0 1.554-.448 1.554-1V24.452c0-.552-.697-1-1.554-1-.858 0-1.555.448-1.555 1V54.16Zm8.035-7.667c0 .552.697 1 1.555 1 .857 0 1.555-.448 1.555-1V32.116c0-.552-.698-1-1.555-1-.858 0-1.555.448-1.555 1v14.377Zm9.589 5.381c.858 0 1.555-.449 1.555-1V27.742c0-.552-.697-1-1.555-1-.857 0-1.555.448-1.555 1v23.13c0 .553.698 1.001 1.555 1.001Zm7.997-27.945h-.005c-.859 0-1.555.448-1.555 1v30.749c0 .552.696 1 1.555 1h.005c.859 0 1.555-.448 1.555-1V24.929c0-.552-.696-1-1.555-1Zm6.474 26.225c0 .552.697 1 1.555 1s1.555-.448 1.555-1V30.449c0-.552-.697-1-1.555-1s-1.555.448-1.555 1v19.705Zm8.035-3.315c0 .552.698 1 1.555 1 .858 0 1.555-.448 1.555-1V34.125c0-.552-.697-1.001-1.555-1.001-.857 0-1.555.449-1.555 1V46.84Zm8.036 3.315c0 .552.697 1 1.555 1 .857 0 1.555-.448 1.555-1V30.449c0-.552-.698-1-1.555-1-.858 0-1.555.448-1.555 1v19.705Zm8.035 4.306c0 .551.697 1 1.555 1 .857 0 1.551-.449 1.551-1V26.142c0-.552-.694-1-1.551-1-.858 0-1.555.448-1.555 1V54.46Zm8.026 6.506c0 .552.7 1 1.56 1 .86 0 1.55-.448 1.55-1v-43.32c0-.552-.69-1-1.55-1-.86 0-1.56.448-1.56 1v43.32Zm8.04 8.365c0 .552.69 1.001 1.55 1.001.86 0 1.56-.449 1.56-1V9.28c0-.552-.7-1-1.56-1-.86 0-1.55.448-1.55 1v60.05Zm8.03-14.939c0 .552.7 1 1.56 1 .86 0 1.55-.448 1.55-1V24.224c0-.552-.69-1-1.55-1-.86 0-1.56.448-1.56 1v30.168Zm8.04 5.698c0 .552.7 1 1.55 1 .86 0 1.56-.448 1.56-1V18.522c0-.552-.7-1-1.56-1-.85 0-1.55.448-1.55 1V60.09Zm8.03-6.506c0 .551.7 1 1.56 1 .86 0 1.55-.449 1.55-1V25.029c0-.552-.69-1-1.55-1-.86 0-1.56.448-1.56 1v28.555Zm8.04-5.428c0 .552.7 1.001 1.55 1.001.86 0 1.56-.449 1.56-1v-17.7c0-.552-.7-1-1.56-1-.85 0-1.55.448-1.55 1v17.7Zm8.99-24.227c-.86 0-1.56.448-1.56 1v30.749c0 .552.7 1 1.56 1 .86 0 1.56-.448 1.56-1V24.929c0-.552-.7-1-1.56-1Zm6.48 26.226c0 .552.69 1 1.55 1 .86 0 1.56-.448 1.56-1V30.45c0-.552-.7-1-1.56-1-.86 0-1.55.448-1.55 1v19.705Zm8.03-3.316c0 .552.7 1 1.56 1 .85 0 1.55-.448 1.55-1V34.125c0-.552-.7-1.001-1.55-1.001-.86 0-1.56.449-1.56 1V46.84Zm8.04 3.316c0 .552.69 1 1.55 1 .86 0 1.56-.448 1.56-1V30.45c0-.552-.7-1-1.56-1-.86 0-1.55.448-1.55 1v19.705Zm8.03 4.305c0 .552.7 1 1.56 1 .85 0 1.55-.448 1.55-1V26.144c0-.552-.7-1-1.55-1-.86 0-1.56.448-1.56 1V54.46Zm8.03 6.507c0 .552.7 1 1.56 1 .85 0 1.55-.448 1.55-1v-43.32c0-.552-.7-1-1.55-1-.86 0-1.56.448-1.56 1v43.32Zm8.04 8.364c0 .552.69 1.001 1.55 1.001.86 0 1.56-.449 1.56-1V9.28c0-.552-.7-1-1.56-1-.86 0-1.55.448-1.55 1v60.05Zm8.03-14.939c0 .552.7 1 1.56 1 .85 0 1.55-.448 1.55-1V24.224c0-.552-.7-1-1.55-1-.86 0-1.56.448-1.56 1v30.168Zm8.04 5.698c0 .553.69 1.001 1.55 1.001.86 0 1.56-.448 1.56-1V18.523c0-.552-.7-1-1.56-1-.86 0-1.55.448-1.55 1v41.568Zm8.03-6.506c0 .551.7 1 1.56 1 .85 0 1.55-.449 1.55-1V25.029c0-.552-.7-1-1.55-1-.86 0-1.56.448-1.56 1v28.555Zm8.04-5.428c0 .552.69 1.001 1.55 1.001.86 0 1.56-.449 1.56-1v-17.7c0-.552-.7-1-1.56-1-.86 0-1.55.448-1.55 1v17.7Zm39.35 0c0 .552.7 1.001 1.55 1.001.86 0 1.56-.449 1.56-1v-17.7c0-.552-.7-1-1.56-1-.85 0-1.55.448-1.55 1v17.7Zm7.98-2.615c0 .374.71.678 1.59.678.88 0 1.6-.304 1.6-.678V33.545c0-.374-.72-.678-1.6-.678-.88 0-1.59.304-1.59.678v11.996Zm7.98 0c0 .374.71.678 1.59.678.88 0 1.6-.304 1.6-.678V33.545c0-.374-.72-.678-1.6-.678-.88 0-1.59.304-1.59.678v11.996Zm7.98-1.845c0 .26.71.47 1.59.47.88 0 1.6-.21 1.6-.47v-8.305c0-.259-.72-.47-1.6-.47-.88 0-1.59.211-1.59.47v8.305Zm-55.26 16.44c0 .552.7 1.001 1.56 1.001.85 0 1.55-.449 1.55-1v-41.66c0-.553-.7-1.001-1.55-1.001-.86 0-1.56.448-1.56 1v41.66Zm8.04 9.584c0 .552.69 1 1.55 1 .86 0 1.56-.448 1.56-1V8.893c0-.552-.7-1-1.56-1-.86 0-1.55.448-1.55 1V69.72Zm9.59-53.986h-.01c-.86 0-1.55.448-1.55 1.001v45.147c0 .552.69 1 1.55 1h.01c.86 0 1.55-.448 1.55-1V16.735c0-.553-.69-1-1.55-1Zm6.47 38.889c0 .552.7 1 1.56 1 .85 0 1.55-.448 1.55-1V23.99c0-.552-.7-1-1.55-1-.86 0-1.56.448-1.56 1v30.634Z"/>
  </g>
</svg>
