<?xml version="1.0" encoding="utf-8"?>
<!-- Generator: Adobe Illustrator 28.1.0, SVG Export Plug-In . SVG Version: 6.00 Build 0)  -->
<svg version="1.1" id="Layer_1" xmlns="http://www.w3.org/2000/svg" xmlns:xlink="http://www.w3.org/1999/xlink" x="0px" y="0px"
	 viewBox="0 0 1200 79" style="enable-background:new 0 0 1200 79;" xml:space="preserve">
<style type="text/css">
	.st0{opacity:0.3;}
	.st1{fill:#FFFFFF;}
</style>
<g class="st0">
	<path class="st1" d="M242.6,23.9L242.6,23.9c-0.9,0-1.6,0.4-1.6,1v30.7c0,0.6,0.7,1,1.6,1h0c0.9,0,1.6-0.4,1.6-1V24.9
		C244.1,24.4,243.4,23.9,242.6,23.9z M249.1,50.2c0,0.6,0.7,1,1.6,1s1.6-0.4,1.6-1V30.4c0-0.6-0.7-1-1.6-1s-1.6,0.4-1.6,1V50.2z
		 M257.1,46.8c0,0.6,0.7,1,1.6,1s1.6-0.4,1.6-1V34.1c0-0.6-0.7-1-1.6-1s-1.6,0.4-1.6,1V46.8L257.1,46.8z M265.1,50.2
		c0,0.6,0.7,1,1.6,1s1.6-0.4,1.6-1V30.4c0-0.6-0.7-1-1.6-1s-1.6,0.4-1.6,1V50.2z M273.2,54.5c0,0.6,0.7,1,1.6,1s1.6-0.4,1.6-1V26.1
		c0-0.6-0.7-1-1.6-1s-1.6,0.4-1.6,1V54.5z M281.2,61c0,0.6,0.7,1,1.6,1c0.9,0,1.6-0.4,1.6-1V17.6c0-0.6-0.7-1-1.6-1
		c-0.9,0-1.6,0.4-1.6,1V61z M289.2,69.3c0,0.6,0.7,1,1.6,1c0.9,0,1.6-0.4,1.6-1V9.3c0-0.6-0.7-1-1.6-1c-0.9,0-1.6,0.4-1.6,1V69.3
		L289.2,69.3z M297.3,54.4c0,0.6,0.7,1,1.6,1s1.6-0.4,1.6-1V24.2c0-0.6-0.7-1-1.6-1s-1.6,0.4-1.6,1
		C297.3,24.2,297.3,54.4,297.3,54.4z M305.3,60.1c0,0.6,0.7,1,1.6,1s1.6-0.4,1.6-1V18.5c0-0.6-0.7-1-1.6-1s-1.6,0.4-1.6,1
		C305.3,18.5,305.3,60.1,305.3,60.1z M313.3,53.6c0,0.6,0.7,1,1.6,1s1.6-0.4,1.6-1V25c0-0.6-0.7-1-1.6-1s-1.6,0.4-1.6,1
		C313.3,25,313.3,53.6,313.3,53.6z M321.4,48.2c0,0.6,0.7,1,1.6,1c0.9,0,1.6-0.4,1.6-1V30.5c0-0.6-0.7-1-1.6-1c-0.9,0-1.6,0.4-1.6,1
		V48.2L321.4,48.2z M329.4,60.1c0,0.6,0.7,1,1.6,1c0.9,0,1.6-0.4,1.6-1V18.5c0-0.6-0.7-1-1.6-1c-0.9,0-1.6,0.4-1.6,1V60.1z
		 M337.4,69.7c0,0.6,0.7,1,1.6,1s1.6-0.4,1.6-1V8.9c0-0.6-0.7-1-1.6-1s-1.6,0.4-1.6,1V69.7z M347,15.7L347,15.7
		c-0.9,0-1.6,0.4-1.6,1v45.1c0,0.6,0.7,1,1.6,1h0c0.9,0,1.6-0.4,1.6-1V16.7C348.6,16.2,347.9,15.7,347,15.7L347,15.7z M353.5,54.6
		c0,0.6,0.7,1,1.6,1c0.9,0,1.6-0.4,1.6-1V24c0-0.6-0.7-1-1.6-1c-0.9,0-1.6,0.4-1.6,1V54.6L353.5,54.6z M361.5,69.8
		c0,0.6,0.7,1,1.6,1s1.6-0.4,1.6-1v-61c0-0.6-0.7-1-1.6-1s-1.6,0.4-1.6,1V69.8z M371.1,0L371.1,0c-0.9,0-1.6,0.4-1.6,1v76.6
		c0,0.6,0.7,1,1.6,1h0c0.9,0,1.6-0.4,1.6-1V1C372.7,0.4,372,0,371.1,0z M377.6,70.9c0,0.6,0.7,1,1.6,1c0.9,0,1.6-0.4,1.6-1V7.7
		c0-0.6-0.7-1-1.6-1c-0.9,0-1.6,0.4-1.6,1V70.9z M385.6,61.3c0,0.6,0.7,1,1.6,1c0.9,0,1.6-0.4,1.6-1v-44c0-0.6-0.7-1-1.6-1
		c-0.9,0-1.6,0.4-1.6,1V61.3z M393.7,67.9c0,0.6,0.7,1,1.6,1s1.6-0.4,1.6-1V10.7c0-0.6-0.7-1-1.6-1s-1.6,0.4-1.6,1V67.9L393.7,67.9z
		 M401.7,55.4c0,0.6,0.7,1,1.6,1s1.6-0.4,1.6-1V23.2c0-0.6-0.7-1-1.6-1s-1.6,0.4-1.6,1V55.4z M410,46.7c0,0.6,0.7,1,1.6,1
		s1.6-0.4,1.6-1V31.9c0-0.6-0.7-1-1.6-1s-1.6,0.4-1.6,1V46.7L410,46.7z M450,46.7c0,0.6,0.7,1,1.6,1s1.6-0.4,1.6-1V31.9
		c0-0.6-0.7-1-1.6-1s-1.6,0.4-1.6,1V46.7L450,46.7z M418,55.6c0,0.6,0.7,1,1.6,1s1.6-0.4,1.6-1V23c0-0.6-0.7-1-1.6-1s-1.6,0.4-1.6,1
		C418,23,418,55.6,418,55.6z M426.1,52.2c0,0.6,0.7,1,1.6,1s1.6-0.4,1.6-1V26.4c0-0.6-0.7-1-1.6-1s-1.6,0.4-1.6,1V52.2z M434.1,66.9
		c0,0.6,0.7,1,1.6,1c0.9,0,1.6-0.4,1.6-1V11.8c0-0.6-0.7-1-1.6-1c-0.9,0-1.6,0.4-1.6,1V66.9z M442,54.2c0,0.6,0.7,1,1.6,1
		s1.6-0.4,1.6-1V24.5c0-0.6-0.7-1-1.6-1s-1.6,0.4-1.6,1V54.2z M466,46.5c0,0.6,0.7,1,1.6,1c0.9,0,1.6-0.4,1.6-1V32.1
		c0-0.6-0.7-1-1.6-1c-0.9,0-1.6,0.4-1.6,1V46.5z M475.6,51.9c0.9,0,1.6-0.4,1.6-1V27.7c0-0.6-0.7-1-1.6-1c-0.9,0-1.6,0.4-1.6,1v23.1
		C474,51.4,474.7,51.9,475.6,51.9L475.6,51.9z M1.6,23.9L1.6,23.9c-0.9,0-1.6,0.4-1.6,1v30.7c0,0.6,0.7,1,1.6,1h0
		c0.9,0,1.6-0.4,1.6-1V24.9C3.1,24.4,2.4,23.9,1.6,23.9L1.6,23.9z M8,50.2c0,0.6,0.7,1,1.6,1s1.6-0.4,1.6-1V30.4c0-0.6-0.7-1-1.6-1
		S8,29.9,8,30.4V50.2z M16.1,46.8c0,0.6,0.7,1,1.6,1s1.6-0.4,1.6-1V34.1c0-0.6-0.7-1-1.6-1s-1.6,0.4-1.6,1V46.8L16.1,46.8z
		 M24.1,50.2c0,0.6,0.7,1,1.6,1s1.6-0.4,1.6-1V30.4c0-0.6-0.7-1-1.6-1s-1.6,0.4-1.6,1V50.2z M32.1,54.5c0,0.6,0.7,1,1.6,1
		s1.6-0.4,1.6-1V26.1c0-0.6-0.7-1-1.6-1s-1.6,0.4-1.6,1V54.5z M40.2,61c0,0.6,0.7,1,1.6,1s1.6-0.4,1.6-1V17.6c0-0.6-0.7-1-1.6-1
		s-1.6,0.4-1.6,1V61z M48.2,69.3c0,0.6,0.7,1,1.6,1s1.6-0.4,1.6-1V9.3c0-0.6-0.7-1-1.6-1s-1.6,0.4-1.6,1V69.3L48.2,69.3z M56.2,54.4
		c0,0.6,0.7,1,1.6,1s1.6-0.4,1.6-1V24.2c0-0.6-0.7-1-1.6-1s-1.6,0.4-1.6,1C56.2,24.2,56.2,54.4,56.2,54.4z M64.3,60.1
		c0,0.6,0.7,1,1.6,1c0.9,0,1.6-0.4,1.6-1V18.5c0-0.6-0.7-1-1.6-1c-0.9,0-1.6,0.4-1.6,1C64.3,18.5,64.3,60.1,64.3,60.1z M72.3,53.6
		c0,0.6,0.7,1,1.6,1c0.9,0,1.6-0.4,1.6-1V25c0-0.6-0.7-1-1.6-1c-0.9,0-1.6,0.4-1.6,1C72.3,25,72.3,53.6,72.3,53.6z M80.3,48.2
		c0,0.6,0.7,1,1.6,1c0.9,0,1.6-0.4,1.6-1V30.5c0-0.6-0.7-1-1.6-1c-0.9,0-1.6,0.4-1.6,1V48.2L80.3,48.2z M88.4,60.1
		c0,0.6,0.7,1,1.6,1s1.6-0.4,1.6-1V18.5c0-0.6-0.7-1-1.6-1s-1.6,0.4-1.6,1V60.1z M96.4,69.7c0,0.6,0.7,1,1.6,1s1.6-0.4,1.6-1V8.9
		c0-0.6-0.7-1-1.6-1s-1.6,0.4-1.6,1V69.7z M106,15.7L106,15.7c-0.9,0-1.6,0.4-1.6,1v45.1c0,0.6,0.7,1,1.6,1h0c0.9,0,1.6-0.4,1.6-1
		V16.7C107.6,16.2,106.9,15.7,106,15.7L106,15.7z M112.5,54.6c0,0.6,0.7,1,1.6,1c0.9,0,1.6-0.4,1.6-1V24c0-0.6-0.7-1-1.6-1
		c-0.9,0-1.6,0.4-1.6,1V54.6L112.5,54.6z M120.5,69.8c0,0.6,0.7,1,1.6,1c0.9,0,1.6-0.4,1.6-1v-61c0-0.6-0.7-1-1.6-1
		c-0.9,0-1.6,0.4-1.6,1V69.8z M130.1,0L130.1,0c-0.9,0-1.6,0.4-1.6,1v76.6c0,0.6,0.7,1,1.6,1h0c0.9,0,1.6-0.4,1.6-1V1
		C131.7,0.4,131,0,130.1,0z M136.6,70.9c0,0.6,0.7,1,1.6,1c0.9,0,1.6-0.4,1.6-1V7.7c0-0.6-0.7-1-1.6-1c-0.9,0-1.6,0.4-1.6,1V70.9z
		 M144.6,61.3c0,0.6,0.7,1,1.6,1c0.9,0,1.6-0.4,1.6-1v-44c0-0.6-0.7-1-1.6-1c-0.9,0-1.6,0.4-1.6,1V61.3z M152.7,67.9
		c0,0.6,0.7,1,1.6,1c0.9,0,1.6-0.4,1.6-1V10.7c0-0.6-0.7-1-1.6-1c-0.9,0-1.6,0.4-1.6,1V67.9L152.7,67.9z M160.7,55.4
		c0,0.6,0.7,1,1.6,1c0.9,0,1.6-0.4,1.6-1V23.2c0-0.6-0.7-1-1.6-1c-0.9,0-1.6,0.4-1.6,1V55.4z M168.7,50.7c0,0.6,0.7,1,1.6,1
		c0.9,0,1.6-0.5,1.6-1V27.9c0-0.6-0.7-1-1.6-1c-0.9,0-1.6,0.4-1.6,1V50.7z M176.8,46.7c0,0.6,0.7,1,1.6,1s1.6-0.4,1.6-1V31.9
		c0-0.6-0.7-1-1.6-1s-1.6,0.4-1.6,1V46.7L176.8,46.7z M184.8,55.6c0,0.6,0.7,1,1.6,1s1.6-0.4,1.6-1V23c0-0.6-0.7-1-1.6-1
		s-1.6,0.4-1.6,1C184.8,23,184.8,55.6,184.8,55.6z M192.8,52.2c0,0.6,0.7,1,1.6,1c0.9,0,1.6-0.4,1.6-1V26.4c0-0.6-0.7-1-1.6-1
		c-0.9,0-1.6,0.4-1.6,1V52.2L192.8,52.2z M200.9,66.9c0,0.6,0.7,1,1.6,1c0.9,0,1.6-0.4,1.6-1V11.8c0-0.6-0.7-1-1.6-1
		c-0.9,0-1.6,0.4-1.6,1V66.9z M208.9,62.8c0,0.6,0.7,1,1.6,1s1.6-0.4,1.6-1v-47c0-0.6-0.7-1-1.6-1s-1.6,0.4-1.6,1V62.8z M216.9,54.2
		c0,0.6,0.7,1,1.6,1s1.6-0.4,1.6-1V24.5c0-0.6-0.7-1-1.6-1s-1.6,0.4-1.6,1V54.2z M225,46.5c0,0.6,0.7,1,1.6,1c0.9,0,1.6-0.4,1.6-1
		V32.1c0-0.6-0.7-1-1.6-1c-0.9,0-1.6,0.4-1.6,1V46.5z M234.6,51.9c0.9,0,1.6-0.4,1.6-1V27.7c0-0.6-0.7-1-1.6-1s-1.6,0.4-1.6,1v23.1
		C233,51.4,233.7,51.9,234.6,51.9L234.6,51.9z M726,23.9L726,23.9c-0.9,0-1.6,0.4-1.6,1v30.7c0,0.6,0.7,1,1.6,1h0
		c0.9,0,1.6-0.4,1.6-1V24.9C727.5,24.4,726.8,23.9,726,23.9z M740.5,46.8c0,0.6,0.7,1,1.6,1c0.9,0,1.6-0.4,1.6-1V34.1
		c0-0.6-0.7-1-1.6-1c-0.9,0-1.6,0.4-1.6,1V46.8L740.5,46.8z M748.5,50.2c0,0.6,0.7,1,1.6,1s1.6-0.4,1.6-1V30.4c0-0.6-0.7-1-1.6-1
		s-1.6,0.4-1.6,1V50.2z M756.5,54.5c0,0.6,0.7,1,1.6,1s1.6-0.4,1.6-1V26.1c0-0.6-0.7-1-1.6-1s-1.6,0.4-1.6,1V54.5z M764.6,61
		c0,0.6,0.7,1,1.6,1c0.9,0,1.6-0.4,1.6-1V17.6c0-0.6-0.7-1-1.6-1c-0.9,0-1.6,0.4-1.6,1V61z M772.6,69.3c0,0.6,0.7,1,1.6,1
		s1.6-0.4,1.6-1V9.3c0-0.6-0.7-1-1.6-1s-1.6,0.4-1.6,1V69.3L772.6,69.3z M780.6,54.4c0,0.6,0.7,1,1.6,1s1.6-0.4,1.6-1V24.2
		c0-0.6-0.7-1-1.6-1s-1.6,0.4-1.6,1C780.6,24.2,780.6,54.4,780.6,54.4z M796.7,53.6c0,0.6,0.7,1,1.6,1s1.6-0.4,1.6-1V25
		c0-0.6-0.7-1-1.6-1s-1.6,0.4-1.6,1C796.7,25,796.7,53.6,796.7,53.6z M804.7,48.2c0,0.6,0.7,1,1.6,1s1.6-0.4,1.6-1V30.5
		c0-0.6-0.7-1-1.6-1s-1.6,0.4-1.6,1V48.2L804.7,48.2z M789,48.2c0,0.6,0.7,1,1.6,1s1.6-0.4,1.6-1V30.5c0-0.6-0.7-1-1.6-1
		s-1.6,0.4-1.6,1V48.2L789,48.2z M829,48.2c0,0.6,0.7,1,1.6,1s1.6-0.4,1.6-1V30.5c0-0.6-0.7-1-1.6-1s-1.6,0.4-1.6,1V48.2L829,48.2z
		 M812.8,60.1c0,0.6,0.7,1,1.6,1s1.6-0.4,1.6-1V18.5c0-0.6-0.7-1-1.6-1s-1.6,0.4-1.6,1V60.1z M820.8,69.7c0,0.6,0.7,1,1.6,1
		c0.9,0,1.6-0.4,1.6-1V8.9c0-0.6-0.7-1-1.6-1c-0.9,0-1.6,0.4-1.6,1V69.7z M836.9,54.6c0,0.6,0.7,1,1.6,1s1.6-0.4,1.6-1V24
		c0-0.6-0.7-1-1.6-1s-1.6,0.4-1.6,1V54.6L836.9,54.6z M844.9,69.8c0,0.6,0.7,1,1.6,1c0.9,0,1.6-0.4,1.6-1v-61c0-0.6-0.7-1-1.6-1
		c-0.9,0-1.6,0.4-1.6,1V69.8z M854.5,0L854.5,0c-0.9,0-1.6,0.4-1.6,1v76.6c0,0.6,0.7,1,1.6,1h0c0.9,0,1.6-0.4,1.6-1V1
		C856.1,0.4,855.4,0,854.5,0z M861,70.9c0,0.6,0.7,1,1.6,1c0.9,0,1.6-0.4,1.6-1V7.7c0-0.6-0.7-1-1.6-1c-0.9,0-1.6,0.4-1.6,1V70.9z
		 M869,61.3c0,0.6,0.7,1,1.6,1c0.9,0,1.6-0.4,1.6-1v-44c0-0.6-0.7-1-1.6-1c-0.9,0-1.6,0.4-1.6,1V61.3z M877.1,67.9
		c0,0.6,0.7,1,1.6,1c0.9,0,1.6-0.4,1.6-1V10.7c0-0.6-0.7-1-1.6-1c-0.9,0-1.6,0.4-1.6,1V67.9L877.1,67.9z M885.1,55.4
		c0,0.6,0.7,1,1.6,1c0.9,0,1.6-0.4,1.6-1V23.2c0-0.6-0.7-1-1.6-1c-0.9,0-1.6,0.4-1.6,1V55.4z M893.1,50.7c0,0.6,0.7,1,1.6,1
		s1.6-0.5,1.6-1V27.9c0-0.6-0.7-1-1.6-1s-1.6,0.4-1.6,1V50.7z M901.2,46.7c0,0.6,0.7,1,1.6,1s1.6-0.4,1.6-1V31.9c0-0.6-0.7-1-1.6-1
		s-1.6,0.4-1.6,1V46.7L901.2,46.7z M909.2,55.6c0,0.6,0.7,1,1.6,1c0.9,0,1.6-0.4,1.6-1V23c0-0.6-0.7-1-1.6-1c-0.9,0-1.6,0.4-1.6,1
		C909.2,23,909.2,55.6,909.2,55.6z M917.2,52.2c0,0.6,0.7,1,1.6,1c0.9,0,1.6-0.4,1.6-1V26.4c0-0.6-0.7-1-1.6-1c-0.9,0-1.6,0.4-1.6,1
		V52.2L917.2,52.2z M925.3,66.9c0,0.6,0.7,1,1.6,1s1.6-0.4,1.6-1V11.8c0-0.6-0.7-1-1.6-1s-1.6,0.4-1.6,1V66.9z M933.3,62.8
		c0,0.6,0.7,1,1.6,1c0.9,0,1.6-0.4,1.6-1v-47c0-0.6-0.7-1-1.6-1c-0.9,0-1.6,0.4-1.6,1V62.8z M941.3,54.2c0,0.6,0.7,1,1.6,1
		c0.9,0,1.6-0.4,1.6-1V24.5c0-0.6-0.7-1-1.6-1c-0.9,0-1.6,0.4-1.6,1V54.2z M949.4,46.5c0,0.6,0.7,1,1.6,1c0.9,0,1.6-0.4,1.6-1V32.1
		c0-0.6-0.7-1-1.6-1c-0.9,0-1.6,0.4-1.6,1V46.5z M959,51.9c0.9,0,1.6-0.4,1.6-1V27.7c0-0.6-0.7-1-1.6-1c-0.9,0-1.6,0.4-1.6,1v23.1
		C957.4,51.4,958.1,51.9,959,51.9L959,51.9z"/>
	<path class="st1" d="M909.2,55.6c0,0.6,0.7,1,1.6,1c0.9,0,1.6-0.4,1.6-1V23c0-0.6-0.7-1-1.6-1c-0.9,0-1.6,0.4-1.6,1
		C909.2,23,909.2,55.6,909.2,55.6z M917.2,52.2c0,0.6,0.7,1,1.6,1c0.9,0,1.6-0.4,1.6-1V26.4c0-0.6-0.7-1-1.6-1c-0.9,0-1.6,0.4-1.6,1
		V52.2L917.2,52.2z M925.3,66.9c0,0.6,0.7,1,1.6,1s1.6-0.4,1.6-1V11.8c0-0.6-0.7-1-1.6-1s-1.6,0.4-1.6,1V66.9z M933.3,62.8
		c0,0.6,0.7,1,1.6,1c0.9,0,1.6-0.4,1.6-1v-47c0-0.6-0.7-1-1.6-1c-0.9,0-1.6,0.4-1.6,1V62.8z M941.3,54.2c0,0.6,0.7,1,1.6,1
		c0.9,0,1.6-0.4,1.6-1V24.5c0-0.6-0.7-1-1.6-1c-0.9,0-1.6,0.4-1.6,1V54.2z M949.4,46.5c0,0.6,0.7,1,1.6,1c0.9,0,1.6-0.4,1.6-1V32.1
		c0-0.6-0.7-1-1.6-1c-0.9,0-1.6,0.4-1.6,1V46.5z M959,51.9c0.9,0,1.6-0.4,1.6-1V27.7c0-0.6-0.7-1-1.6-1c-0.9,0-1.6,0.4-1.6,1v23.1
		C957.4,51.4,958.1,51.9,959,51.9L959,51.9z M967,23.9L967,23.9c-0.9,0-1.6,0.4-1.6,1v30.7c0,0.6,0.7,1,1.6,1h0c0.9,0,1.6-0.4,1.6-1
		V24.9C968.5,24.4,967.8,23.9,967,23.9z M973.4,50.2c0,0.6,0.7,1,1.6,1s1.6-0.4,1.6-1V30.4c0-0.6-0.7-1-1.6-1s-1.6,0.4-1.6,1V50.2z
		 M981.5,46.8c0,0.6,0.7,1,1.6,1c0.9,0,1.6-0.4,1.6-1V34.1c0-0.6-0.7-1-1.6-1c-0.9,0-1.6,0.4-1.6,1V46.8L981.5,46.8z M989.5,50.2
		c0,0.6,0.7,1,1.6,1c0.9,0,1.6-0.4,1.6-1V30.4c0-0.6-0.7-1-1.6-1c-0.9,0-1.6,0.4-1.6,1V50.2z M997.5,54.5c0,0.6,0.7,1,1.6,1
		c0.9,0,1.6-0.4,1.6-1V26.1c0-0.6-0.7-1-1.6-1c-0.9,0-1.6,0.4-1.6,1V54.5z M1005.6,61c0,0.6,0.7,1,1.6,1s1.5-0.4,1.5-1V17.6
		c0-0.6-0.7-1-1.5-1s-1.6,0.4-1.6,1V61z M1013.6,69.3c0,0.6,0.7,1,1.5,1s1.6-0.4,1.6-1V9.3c0-0.6-0.7-1-1.6-1s-1.5,0.4-1.5,1V69.3
		L1013.6,69.3z M1021.6,54.4c0,0.6,0.7,1,1.6,1s1.6-0.4,1.6-1V24.2c0-0.6-0.7-1-1.5-1c-0.9,0-1.6,0.4-1.6,1L1021.6,54.4L1021.6,54.4
		z M1029.7,60.1c0,0.6,0.7,1,1.6,1c0.9,0,1.6-0.4,1.6-1V18.5c0-0.6-0.7-1-1.6-1c-0.8,0-1.6,0.4-1.6,1
		C1029.7,18.5,1029.7,60.1,1029.7,60.1z M1037.7,53.6c0,0.6,0.7,1,1.6,1c0.9,0,1.6-0.4,1.6-1V25c0-0.6-0.7-1-1.6-1
		c-0.9,0-1.6,0.4-1.6,1C1037.7,25,1037.7,53.6,1037.7,53.6z M1045.7,48.2c0,0.6,0.7,1,1.6,1c0.9,0,1.6-0.4,1.6-1V30.5
		c0-0.6-0.7-1-1.6-1c-0.8,0-1.6,0.4-1.6,1V48.2L1045.7,48.2z M1054.7,23.9c-0.9,0-1.6,0.4-1.6,1v30.7c0,0.6,0.7,1,1.6,1
		c0.9,0,1.6-0.4,1.6-1V24.9C1056.3,24.4,1055.6,23.9,1054.7,23.9z M1061.2,50.2c0,0.6,0.7,1,1.6,1c0.9,0,1.6-0.4,1.6-1V30.5
		c0-0.6-0.7-1-1.6-1c-0.9,0-1.6,0.4-1.6,1C1061.2,30.5,1061.2,50.2,1061.2,50.2z M1069.2,46.8c0,0.6,0.7,1,1.6,1
		c0.8,0,1.6-0.4,1.6-1V34.1c0-0.6-0.7-1-1.6-1c-0.9,0-1.6,0.4-1.6,1V46.8L1069.2,46.8z M1077.3,50.2c0,0.6,0.7,1,1.6,1
		c0.9,0,1.6-0.4,1.6-1V30.5c0-0.6-0.7-1-1.6-1c-0.9,0-1.6,0.4-1.6,1C1077.3,30.5,1077.3,50.2,1077.3,50.2z M1085.3,54.5
		c0,0.6,0.7,1,1.6,1c0.8,0,1.6-0.4,1.6-1V26.1c0-0.6-0.7-1-1.6-1c-0.9,0-1.6,0.4-1.6,1C1085.3,26.1,1085.3,54.5,1085.3,54.5z
		 M1093.3,61c0,0.6,0.7,1,1.6,1c0.8,0,1.6-0.4,1.6-1V17.6c0-0.6-0.7-1-1.6-1c-0.9,0-1.6,0.4-1.6,1V61z M1101.4,69.3
		c0,0.6,0.7,1,1.6,1c0.9,0,1.6-0.4,1.6-1V9.3c0-0.6-0.7-1-1.6-1c-0.9,0-1.6,0.4-1.6,1V69.3L1101.4,69.3z M1109.4,54.4
		c0,0.6,0.7,1,1.6,1c0.8,0,1.6-0.4,1.6-1V24.2c0-0.6-0.7-1-1.6-1c-0.9,0-1.6,0.4-1.6,1V54.4L1109.4,54.4z M1117.5,60.1
		c0,0.6,0.7,1,1.6,1c0.9,0,1.6-0.4,1.6-1V18.5c0-0.6-0.7-1-1.6-1c-0.9,0-1.6,0.4-1.6,1V60.1L1117.5,60.1z M1125.5,53.6
		c0,0.6,0.7,1,1.6,1c0.8,0,1.6-0.4,1.6-1V25c0-0.6-0.7-1-1.6-1c-0.9,0-1.6,0.4-1.6,1V53.6L1125.5,53.6z M1133.5,48.2
		c0,0.6,0.7,1,1.6,1c0.9,0,1.6-0.4,1.6-1V30.5c0-0.6-0.7-1-1.6-1c-0.9,0-1.6,0.4-1.6,1V48.2L1133.5,48.2z M1172.9,48.2
		c0,0.6,0.7,1,1.6,1c0.9,0,1.6-0.4,1.6-1V30.5c0-0.6-0.7-1-1.6-1c-0.8,0-1.6,0.4-1.6,1V48.2L1172.9,48.2z M1180.9,45.5
		c0,0.4,0.7,0.7,1.6,0.7s1.6-0.3,1.6-0.7v-12c0-0.4-0.7-0.7-1.6-0.7s-1.6,0.3-1.6,0.7C1180.9,33.5,1180.9,45.5,1180.9,45.5z
		 M1188.8,45.5c0,0.4,0.7,0.7,1.6,0.7s1.6-0.3,1.6-0.7v-12c0-0.4-0.7-0.7-1.6-0.7s-1.6,0.3-1.6,0.7
		C1188.8,33.5,1188.8,45.5,1188.8,45.5z M1196.8,43.7c0,0.3,0.7,0.5,1.6,0.5s1.6-0.2,1.6-0.5v-8.3c0-0.3-0.7-0.5-1.6-0.5
		s-1.6,0.2-1.6,0.5V43.7z M1141.6,60.1c0,0.6,0.7,1,1.6,1c0.8,0,1.6-0.4,1.6-1V18.5c0-0.6-0.7-1-1.6-1c-0.9,0-1.6,0.4-1.6,1V60.1z
		 M1149.6,69.7c0,0.6,0.7,1,1.6,1c0.9,0,1.6-0.4,1.6-1V8.9c0-0.6-0.7-1-1.6-1c-0.9,0-1.6,0.4-1.6,1
		C1149.6,8.9,1149.6,69.7,1149.6,69.7z M1159.2,15.7L1159.2,15.7c-0.9,0-1.6,0.4-1.6,1v45.1c0,0.6,0.7,1,1.6,1h0
		c0.9,0,1.6-0.4,1.6-1V16.7C1160.7,16.2,1160,15.7,1159.2,15.7L1159.2,15.7z M1165.7,54.6c0,0.6,0.7,1,1.6,1c0.8,0,1.6-0.4,1.6-1V24
		c0-0.6-0.7-1-1.6-1c-0.9,0-1.6,0.4-1.6,1V54.6L1165.7,54.6z"/>
</g>
</svg>
